<?xml version="1.0" encoding="iso-8859-1"?>
<!-- Generator: Adobe Illustrator 19.0.0, SVG Export Plug-In . SVG Version: 6.00 Build 0)  -->
<svg version="1.1" id="Capa_1" xmlns="http://www.w3.org/2000/svg" xmlns:xlink="http://www.w3.org/1999/xlink" x="0px" y="0px"
	 viewBox="0 0 512.002 512.002" style="enable-background:new 0 0 512.002 512.002;" xml:space="preserve">
<g>
	<g>
		<path d="M478.138,88.388c0.686-0.728-0.241-2.243-0.63-2.963c-1.188-2.205-3.108-3.613-5.647-3.835
			c-5.947-0.521-10.991,3.847-13.654,8.579c-0.18,0.319,0.204,0.784,0.539,0.539c1.228-0.899,2.494-1.709,3.796-2.447
			c0.019,0.26,0.047,0.495,0.057,0.576c0.126,0.997,0.025,1.947,0.096,2.932c0.095,1.311,0.628,2.686,1.517,3.664
			c1.369,1.508,4.262,3.913,6.334,2.616c0.301-0.188,0.292-0.604,0-0.794c-1.572-1.021-3.873-2.272-5.041-3.726
			c-0.617-0.769-0.885-1.725-1.096-2.72c0.059,0.079,0.114,0.158,0.174,0.236c1.15,1.533,2.535,3.094,4.631,2.933
			c1.845-0.141,3.904-0.489,5.236-1.868c0.452-0.467,0.68-1.062,1.202-1.487c0.254-0.207,0.543-0.32,0.819-0.472
			c-0.445,2.106-1.806,4.143-1.732,6.38c0.017,0.498,0.505,0.729,0.93,0.533c0.762-0.351,1.025-0.341,1.396-1.168
			c0.496-1.102,0.734-2.344,0.929-3.526c0.263-1.599,0.491-2.749,0.104-3.96C478.111,88.401,478.128,88.398,478.138,88.388z
			 M472.74,89.361c-0.914,1.096-1.661,1.386-3.091,1.57c-1.708,0.22-2.46-0.574-3.471-1.854c-0.432-0.547-0.994-1.278-1.431-1.972
			c1.643-0.75,3.36-1.334,5.199-1.668c0.225-0.041,0.424-0.057,0.626-0.075c-0.073,0.215-0.136,0.449-0.199,0.704
			c-0.231,0.932-0.901,1.632-0.81,2.653c0.072,0.804,0.922,1.477,1.703,0.978c0.883-0.564,1.48-1.449,1.754-2.459
			c0.133-0.49,0.089-0.939,0.054-1.425c0.679,0.355,1.284,0.867,2.005,1.436C474.448,88.066,473.425,88.54,472.74,89.361z"/>
	</g>
</g>
<g>
	<g>
		<path d="M471.154,98.856c-2.448-0.109-5.096,1.151-7.306-0.277c-1.67-1.08-3.295-2.588-4.424-4.194
			c-0.271-0.386-0.848-0.057-0.635,0.371c1.069,2.142,2.788,4.583,4.904,5.817c2.609,1.523,5.221-0.128,7.56-1.35
			C471.436,99.128,471.339,98.864,471.154,98.856z"/>
	</g>
</g>
<g>
	<g>
		<path d="M461.678,77.022c-4.617-1.383-7.545,3.398-9.318,6.865c-1.155,2.259-6.282,11.332-0.694,12.093
			c0.565,0.077,1.005-0.517,0.575-0.987c-2.541-2.787,2.166-9.793,3.742-12.471c1.405-2.389,3.262-3.91,5.738-5.164
			C461.867,77.284,461.821,77.065,461.678,77.022z"/>
	</g>
</g>
<g>
	<g>
		<path d="M448.686,83.59c-2.287,2.153-4.063,5.366-4.4,8.537c-0.182,1.715,0.128,3.517,1.005,5.018
			c0.876,1.499,1.886,1.724,3.159,2.687c0.391,0.295,0.826-0.121,0.869-0.499c0.087-0.75-0.051-0.802-0.39-1.434
			c-0.872-1.626-1.908-2.442-2.257-4.462c-0.528-3.058,0.775-6.823,2.684-9.178C449.732,83.794,449.14,83.164,448.686,83.59z"/>
	</g>
</g>
<g>
	<g>
		<path d="M463.93,120.13c-2.554-1.077-5.411-0.49-8.105-0.996c-2.323-0.436-4.562-1.248-6.87-1.803
			c-0.611-0.147-1.352,0.581-0.904,1.177c3.186,4.245,11.633,4.037,15.934,2.03C464.179,120.446,464.085,120.195,463.93,120.13z"/>
	</g>
</g>
<g>
	<g>
		<path d="M454.905,116.616c-3.02-0.295-5.768-2.82-8.068-4.586c-1.717-1.319-3.495-2.861-5.428-3.848
			c-0.426-0.217-0.822,0.214-0.629,0.629c2.346,5.034,8.414,9.29,14.125,8.54C455.37,117.29,455.384,116.663,454.905,116.616z"/>
	</g>
</g>
<g>
	<g>
		<path d="M449.835,109.107c-1.68-2.361-3.734-4.128-6.105-5.77c-1.412-0.977-3.924-3.517-5.84-2.791
			c-0.571,0.216-0.732,0.824-0.342,1.295c3.01,3.63,7.872,4.954,11.318,8.013C449.357,110.292,450.265,109.711,449.835,109.107z"/>
	</g>
</g>
<g>
	<g>
		<path d="M498.799,99.525c0.127,0.236,0.495,0.348,0.68,0.115c0.074-0.096,0.343-0.639,0.16-0.29
			c0.168-0.32,0.264-0.524,0.191-0.896c-0.114-0.576-0.495-0.938-0.982-1.23c-1.023-0.611-2.516-0.833-3.443,0.082
			c-1.012,0.998-0.68,2.773-0.026,3.869c0.43,0.723,1.166,1.314,2.035,1.333c0.77,0.017,1.34-0.438,1.83-0.958
			c0.602-0.636,0.305-1.59-0.492-1.866c-0.125-0.043-0.537-0.184-0.806-0.191c-0.011-0.019-0.021-0.038-0.03-0.057
			c0.025,0,0.047-0.001,0.056-0.001C498.262,99.43,498.526,99.483,498.799,99.525z"/>
	</g>
</g>
<g>
	<g>
		<path d="M273.135,269.527c-0.3-5.824-0.955-11.715-2.12-17.429c-0.198-0.969-1.631-0.548-1.469,0.405
			c0.899,5.334,1.186,10.792,1.344,16.196c0.049,1.681,0.789,6.108,0.213,7.357c-0.277,0.601,0.293,1.241,0.916,0.917
			C274.107,275.887,273.223,271.236,273.135,269.527z"/>
	</g>
</g>
<g>
	<g>
		<path d="M195.618,268.304c-2.26,3.535-3.574,8.956-4.28,13.019c-1.091,6.278-0.35,12.186,0.796,18.348
			c0.27,1.445,2.467,0.831,2.203-0.607c-1.943-10.645-0.1-19.962,2.169-30.385C196.623,268.142,195.92,267.831,195.618,268.304z"/>
	</g>
</g>
<g>
	<g>
		<path d="M189.702,268.997c-0.068-0.016-0.138-0.032-0.207-0.048c-0.198-0.047-0.452,0.027-0.55,0.224
			c-3.647,7.354-7.286,15.055-7.205,23.47c0.015,1.453,2.251,1.456,2.259,0c0.028-4.706,1.544-9.184,2.951-13.627
			c0.529-1.667,1.283-3.233,1.791-4.911c0.121-0.402,0.775-4.217,1.059-4.364C190.107,269.581,190.037,269.075,189.702,268.997z"/>
	</g>
</g>
<g>
	<g>
		<path d="M152.612,308.673c-8.713-0.563-16.876-2.611-25.095-5.559c-6.567-2.356-14.691-5.131-20.415-9.5
			c0.059-0.216-0.029-0.476-0.311-0.587c-9.732-3.862-19.165-7.502-28.037-13.089c-0.838-0.527-1.572,0.769-0.77,1.315
			c9.076,6.181,17.672,10.497,28.556,12.686c0.022,0.005,0.04,0,0.062,0.001c12.297,10.729,29.799,17.088,46.01,15.731
			C153.25,309.618,153.259,308.715,152.612,308.673z"/>
	</g>
</g>
<g>
	<g>
		<path d="M194.357,305.767c-9.646,0.46-19.738,0.638-29.396,0.191c-4.779-0.221-10.399-0.304-14.926-1.913
			c-4.313-1.533-8.755-3.898-12.925-5.836c-0.427-0.198-0.768,0.367-0.371,0.635c3.815,2.583,8.138,5.56,12.378,7.375
			c4.026,1.725,8.675,1.979,12.984,2.405c10.283,1.019,22.37,0.982,32.416-1.672C195.164,306.783,195.048,305.734,194.357,305.767z"
			/>
	</g>
</g>
<g>
	<g>
		<path d="M157.655,297.559c-5.709-0.6-11.324-2.471-16.457-4.992c-1.987-0.977-3.948-2.01-5.936-2.983
			c-0.854-0.418-2.227-0.639-2.832-1.413c-0.236-0.302-0.754,0.026-0.637,0.371c0.863,2.557,7.084,5.175,9.137,6.32
			c5.223,2.912,10.775,3.917,16.725,3.511C158.184,298.337,158.173,297.613,157.655,297.559z"/>
	</g>
</g>
<g>
	<g>
		<path d="M507.745,95.469c-2.283-3.361-5.559-5.145-9.166-6.917c-3.598-1.768-6.652-4.451-10.365-5.884
			c-2.193-0.846-4.084-1.797-5.93-2.908c-0.477-0.822-0.896-1.544-1.127-1.803c-1.514-1.693-3.654-3.502-5.756-4.404
			c-1.811-0.778-3.943-1.07-5.809-1.714c-3.852-1.33-6.719-3.115-10.012-5.4c-3.936-2.731-10.374-4.767-15.074-5.268
			c-5.016-0.535-12.906,0.335-17.165,3.224c-0.653,0.443-1.12,1.459-0.574,2.189c1.32,1.764,3.388,2.364,5.222,3.291
			c-0.715,0-1.42-0.027-1.962,0.071c-1.602,0.292-2.868,0.797-4.394,1.406c-3.433,1.369-7.252,2.818-10.291,4.942
			c-0.841,0.588-0.928,1.803,0,2.373c0.078,0.048,0.16,0.074,0.24,0.117c-4.274,2.086-8.359,5.054-10.718,8.482
			c-0.433,0.627-0.415,1.655,0,2.284c1.03,1.565,2.399,2.113,3.937,2.3c-1.549,1.418-3.539,2.781-4.592,3.826
			c-1.475,1.464-4.436,3.697-4.824,5.908c-0.467,2.654,1.133,3.328,3.015,3.678c-2.817,3.045-6.392,5.68-8.206,9.374
			c-0.684,1.394-1.377,3.355-0.863,4.894c0.428,1.276,1.573,1.618,2.492,2.119c-1.291,1.412-2.983,2.672-4.16,4.078
			c-1.559,1.861-3.232,3.765-4.184,6.074c-0.707,1.717-0.828,3.199-0.48,4.98c0.461,2.356,0.969,1.061,0.191,2.91
			c-0.534,1.271-2.041,2.479-2.85,3.599c-1.506,2.085-3.109,4.39-3.748,6.922c-0.806,3.194,0.447,5.842-1.945,8.433
			c-4.029,4.361-9.223,7.734-13.787,11.658c-0.209,0.091-0.421,0.179-0.629,0.272c-4.675,2.091-9.068,4.454-13.885,6.294
			c-10.279,3.927-21.188,5.969-31.311,10.168c-5.978,2.479-11.625,2.958-17.973,2.218c-5.955-0.695-11.737-1.155-17.721-1.569
			c-5.42-0.375-10.605-0.788-16.023,0.026c-3.17,0.476-9.339,0.979-11.541,3.614c-0.818,0.978-0.846,2.167,0,3.15
			c1.299,1.513,3.564,1.865,5.399,2.373c0.476,0.132,1.111,0.241,1.823,0.347c-2.412,0.16-4.865,0.204-6.945,0.632
			c-4.309,0.886-8.473,2.157-12.656,3.476c-1.275,0.402-1.974,1.884-1.256,3.085c0.131,0.218,0.275,0.412,0.426,0.597
			c-7.158,2.324-13.564,5.767-20.607,8.929c-1.61,0.723-1.6,2.426-0.782,3.619c-2.073,0.711-4.123,1.518-6.161,2.392
			c-3.746,1.607-11.635,3.883-13.586,7.762c-0.528,1.052-0.316,1.977,0.37,2.865c0.196,0.253,0.408,0.461,0.628,0.65
			c-5.098,3.459-11.559,6.017-16.918,8.188c-6.078,2.462-12.236,4.198-18.486,6.121c-1.834,0.108-3.674,0.086-5.518,0.219
			c-5.916,0.427-12.23,1.396-17.977,2.843c-5.872,1.479-10.508,5.019-16.546,6.035c-6.907,1.163-12.829,2.493-19.885,1.233
			c-5.762-1.029-11.538-3.611-17.491-3.347c-2.445,0.109-5.166,0.738-7.396,1.749c-1.761,0.798-3.265,2.732-5.081,3.069
			c-2.568,0.476-6.086-1.768-8.41-2.585c-2.295-0.808-4.637-1.421-6.902-2.329c-4.424-7.832-3.283-16.305-2.582-24.954
			c0.49-6.047,3.38-15.526,0.073-21.168c-0.702-1.198-2.194-1.502-3.387-0.888c-0.655,0.337-1.153,0.83-1.567,1.403
			c-0.416-4.258-1.233-8.378-4.08-11.971c-0.617-0.779-1.896-0.601-2.539,0c-0.398,0.372-0.723,0.77-1.008,1.183
			c-0.929-3.768-2.26-7.762-5.67-8.965c-2.582-0.912-4.673,0.596-6.061,2.669c-2.633-2.77-5.588-6.694-9.24-5.893
			c-3.145,0.689-3.705,3.11-3.789,5.692c-3.034-0.89-5.91-0.533-8.437,2.63c-2.627,3.288-2.187,6.522-0.643,9.555
			c-2.003,0.896-3.685,3.187-4.796,4.827c-0.921,1.36-1.474,2.319-0.947,3.945c0.483,1.496,3.766,2.69,3.925,3.448
			c-0.11-0.522-9.501,6.25-9.763,8.821c-0.237,2.34,1.234,3.389,3.115,3.896c-2.409,2.275-4.523,4.734-4.42,8.495
			c0.088,3.201,2.264,4.313,4.84,4.899c-1.859,3.294-3.946,7.121-3.251,10.553c0.641,3.163,2.686,3.509,5.04,3.787
			c-1.096,3.949-1.938,8.731,1.795,11.192c2.018,1.331,4.016,1.504,5.861,0.941c0.614,1.903,1.807,3.656,3.218,4.65
			c2.877,2.027,5.257,1.619,7.309,0.042c0.829,1.474,2.114,2.719,3.595,3.472c3.219,1.636,4.957,0.433,6.715-1.637
			c0.717,1.762,1.233,3.485,3.504,4.605c2.412,1.188,4.44-0.339,6.648-1.441c0.791,1.749,1.92,3.055,4.239,3.109
			c0.927,0.021,1.207-0.742,2.189-0.331c0.399,0.167,1.174,1.64,1.727,2.072c2.754,2.157,6.235,0.367,8.992,2.335
			c1.909,1.363,3.335,3.732,5.349,5.185c2.438,1.757,5.121,3.201,7.838,4.47c5.795,2.708,10.367,7.17,16.539,9.346
			c4.47,1.575,7.813,2.505,11.57,5.557c2.596,2.108,4.941,3.743,7.933,5.271c4.909,2.506,8.794,5.299,14.421,5.691
			c6.627,0.462,12.879,3.828,19.623,4.64c3.589,0.432,6.963,2.058,10.425,2.962c7.001,4.374,14.554,6.784,23.061,7.523
			c4.786,0.416,9.495,1.154,14.245,1.849c4.544,0.666,8.416,2.352,13.043,1.084c0.279,0.278,0.557,0.571,0.838,0.829
			c2.072,1.908,3.967,4.028,6.051,5.907c2.666,2.404,6.275,3.598,5.59,7.646c-1.21,7.14-7.236,13.486-10.847,19.598
			c-3.335,5.647-7.993,8.729-12.136,13.52c-9.073,10.496,4.042,23.055,6.725,33.749c1.236,4.924,1.779,10.193,0.557,15.154
			c-0.732,2.967-2.444,5.985-2.799,8.999c-0.404,3.435,1.781,5.185,4.574,6.126c0.008,0.009,0.014,0.021,0.023,0.029
			c3.553,3.405,11.166,2.4,15.58,2.104c8.736-0.586,17.353-2.133,26.107-1.504c2.309,0.165,5.068-0.224,6.985-1.377
			c0.25,0.163,0.538,0.271,0.872,0.285c1.911,0.079,3.888-0.772,5.815-0.881c2.074-0.118,4.916,0.285,6.846,0.928
			c0.853,0.284,1.995-0.331,2.168-1.231c0.185-0.958,0.191-1.833,0.067-2.632c5.93,1.398,13.488-0.193,19.42-0.833
			c1.213-0.131,2.314-0.437,3.245-0.913c0.478,0.164,0.957,0.294,1.372,0.308c1.536,0.05,2.959-1,4.523-0.68
			c1.416,0.29,2.33,1.304,3.863,1.33c0.98,0.017,1.688-0.813,1.741-1.741c0.048-0.841-0.271-1.445-0.46-2.232
			c-0.26-1.088-0.058-2.201-0.247-3.302c-0.3-1.732-1.415-2.91-2.983-3.638c-1.867-0.868-4.867-1.314-7.207-0.613
			c-2.406-2.713-6.219-3.08-10.361-3.271c-5.02-0.231-6.776-2.729-10.061-5.788c-2.771-2.581-5.752-5.03-6.761-8.884
			c-2.15-8.214-1.191-16.379,3.823-23.28c1.92-2.643,5.333-3.981,7.152-6.607c0.898-1.295,1.488-5.669,2.659-6.285
			c0.839-0.44,2.722,0.381,3.851-0.094c0.773-0.325,1.069-0.706,1.643-1.343c1.482-1.646,2.039-4.546,2.316-6.639
			c0.879-6.611,1.371-13.822,0.097-20.504c4.886-1.698,9.147-4.979,14.155-6.432c3.075-0.892,6.164-0.526,9.242-1.369
			c2.969-0.813,5.588-2.421,8.524-3.324c1.603-0.492,4.192-0.882,6.003-1.917c1.275-0.163,2.539-0.633,3.656-1.275
			c0.557-0.32,1.098-0.667,1.584-1.051c0.771,1.667,1.949,2.962,3.686,3.654c0.686,0.273,1.657-0.043,2.141-0.566
			c1.676-1.816,2.468-4.446,3.371-6.943c0.273,5.052,0.641,10.491,4.209,13.708c1.516,1.367,3.754,2.56,5.854,2.055
			c1.267-0.305,2.092-0.969,2.768-1.778c0.077,0.312,0.156,0.605,0.252,0.847c0.652,1.662,1.441,3.221,2.462,4.691
			c1.827,2.632,4.243,4.794,7.418,5.581c3.601,0.892,5.519-0.327,6.62-2.441c2.051,3.814,4.182,7.229,9.096,9.155
			c1.838,0.72,3.819,1.244,5.513-0.135c0.154-0.125,0.282-0.259,0.398-0.397c0.353,0.753,0.688,1.444,1.013,1.887
			c0.753,1.027,1.584,2.076,2.469,2.984c1.83,1.875,4.15,3.602,6.821,3.931c3.897,0.48,5.103-1.491,5.453-4.096
			c1.997,1.97,4.346,3.436,6.812,2.849c3.625-0.862,4.061-4.588,4.519-7.845c3.771,2.095,7.685,2.286,10.791-2.326
			c2.091-3.105,2.73-7.146,2.3-11.068c0.285,0.134,0.59,0.26,0.933,0.373c2.112,0.693,4.405,0.531,6.48-0.231
			c0.246,0.165,0.496,0.336,0.743,0.528c3.631,2.822,6.948,6.296,10.264,9.49c3.568,3.436,7.096,6.921,10.631,10.387
			c2.258,2.215,4.697,4.9,7.824,5.809c1.308,0.38,2.623-0.91,2.227-2.228c-1.726-5.737-6.595-11.475-10.346-16.042
			c-2.6-3.165-5.395-6.163-8.01-9.315c-1.309-1.578-2.558-3.196-3.755-4.861c-0.429-0.596-2.46-2.577-2.079-3.371
			c0.494-1.029,5.527,3.785,6.406,4.419c3.771,2.724,7.602,5.103,11.199,8.065c5.665,4.666,11.453,10.372,18.039,13.655
			c1.201,0.599,2.91-0.406,2.426-1.865c-2.257-6.794-8.953-12.662-13.702-17.735c-2.967-3.169-4.931-7.032-7.87-10.204
			c-2.166-2.337-4.456-5.346-7.229-7.136c-0.019-0.203-0.039-0.405-0.078-0.605c-0.17-0.847-0.434-1.638-0.769-2.383
			c5.099,4.192,10.114,8.499,15.115,12.798c2.636,2.266,5.513,4.407,8.354,6.418c2.799,1.982,5.635,5.089,8.892,6.154
			c1.172,0.384,2.389-0.854,2.019-2.019c-1.065-3.353-3.435-6.101-5.814-8.611c-3.727-3.93-6.996-7.787-10.975-11.405
			c-3.545-3.224-6.939-6.645-10.339-10.027c-1.938-1.929-3.75-4.252-6.151-5.557c-0.428-1.441-1.063-2.58-2.377-3.843
			c-0.521-0.503-1-0.868-1.466-1.12c-0.618-2.547-3.676-3.199-7.048-4.209c-3.791-1.136-5.211-2.486-8.143-4.683
			c-2.266-1.697-4.85-1.706-7.18-2.972c-1.852-1.007-3.217-3.389-5.166-4.412c-1.592-0.835-3.49-1.037-5.186-1.535
			c-3.981-1.168-7.938-2.357-12.107-2.666c-3.662-0.271-9.58,0.425-12.945-1.154c2.41-0.679,4.785-2.011,5.836-3.065
			c2.331-2.34,3.98-5.654,5.578-8.486c0.758-1.345,1.459-3.244,2.447-4.431c0.842-1.01,1.838-1.321,2.854-2.284
			c2.203-2.089,1.956-5.046,2.256-7.813c0.456-4.205,0.788-8.411,1.58-12.564c0.771-4.042,0.407-8.089,0.973-12.145
			c0.387-2.778,1.082-5.527,0.918-8.282c2.594-2.849,5.234-5.661,7.879-8.402c3.612-3.745,7.297-6.72,9.26-11.684
			c1.887-4.771,3.021-9.24,4.313-14.211c1.303-5.01,0.983-11.005,2.952-15.716c1.997-4.775,7.543-6.29,9.851-10.743
			c2.195-4.235,1.969-11.148,2.108-15.857c0.091-3.07-0.575-5.86,0.63-8.835c1.356-3.352,4.268-5.358,6.928-7.579
			c1.563-1.306,3.346-2.501,5.137-3.705c4.011-1.715,7.938-3.019,12.533-3.122c5.861-0.132,11.188,2.154,16.991,2.717
			c3.417,0.332,7.495,1.052,10.7-0.569c1.832-0.926,5.545-4.495,5.465-6.647c-0.09-2.462-3.917-3.864-5.482-5.19
			c-0.467-0.395-1.02-0.825-1.615-1.193c-0.76-0.47-1.73-2.101-2.5-2.768c1.913-1.481,4.717,0.009,6.924,0.077
			c1.035,0.032,2.277,0.063,3.229-0.428c0.309-0.16,1.826-1.91,1.685-1.902c2.678-0.139,4.828-1.376,5.429-4.959
			C512.53,102.052,509.643,98.263,507.745,95.469z M295.641,434.515c0.792,0.036,2.21,0.408,2.909,0.807
			c1.037,0.594,1.058,1.213,1.15,2.259c0.037,0.398,0.005,0.796-0.006,1.196c-0.36-0.156-0.735-0.286-1.148-0.348
			c-1.311-0.198-2.391,0.166-3.578,0.333c0.149-0.935,0.07-2.015-0.291-3.246c-0.09-0.308-0.193-0.592-0.3-0.872
			C294.804,434.557,295.228,434.497,295.641,434.515z M260.173,443.588c-1.234,0.133-2.824,0.271-3.965,0.719
			c-0.072,0.028-0.119,0.048-0.178,0.073c0.082-0.769-0.018-1.634-0.383-2.622c0.732-0.025,1.457-0.157,2.148-0.373
			c3.319,0.214,7.545,0.073,8.252,2.649C264.112,443.59,261.97,443.394,260.173,443.588z M266.222,437.568
			c-1.477-0.008-2.938-0.277-4.402-0.238c-0.033-0.235-0.133-0.444-0.29-0.614c0-0.177-0.006-0.361-0.018-0.569
			c-0.057-1.026-0.114-2.453-0.649-3.501c-0.016-0.267-0.039-0.531-0.073-0.793c1.659,0.329,3.406,0.389,4.972,0.98
			c1.689,0.639,2.891,2.815,3.537,4.81C268.304,437.759,266.814,437.571,266.222,437.568z M284.054,355.845
			c-0.275,3.868-0.895,7.857-1.522,11.69c-0.056,0.342-0.103,0.723-0.149,1.116c-2.278-1.754-5.699-1.161-7.442-3.877
			c-0.595-0.926-1.981-0.115-1.474,0.862c0.805,1.552,2.033,2.631,3.608,3.375c0.944,0.446,1.925,0.73,2.91,1.063
			c0.739,0.25,1.373,0.589,2.094,0.506c-0.237,1.063-0.636,2.048-1.44,2.639c-0.543,0.398-2.671,0.132-3.373,0.472
			c-0.104,0.05-0.196,0.104-0.29,0.158c-1.144,0.006-2.331,0.077-3.354-0.627c-1.477-1.016-6.316-4.162-3.877,0.116
			c0.465,0.815,1.768,2.185,2.535,2.769c0.776,0.591,1.596,0.805,2.43,0.898c-1.119,2.792-1.565,4.551-3.922,6.622
			c-2.097,1.844-4.279,3.416-5.744,5.846c-3.233,5.365-4.746,9.934-4.613,16.261c0.127,5.979,1.258,11.007,5.063,15.544
			c2.968,3.54,5.679,7.989,9.724,10.449c2.275,1.384,4.598,1.617,7.182,1.75c0.611,0.032,3.764-0.029,4.826,0.317
			c2.404,0.783,5.521,2.988,2.641,5.425c-2.208,1.87-6.409,0.415-9.076,0.559c-2.835,0.153-5.651,0.419-8.475,0.595
			c0.096-0.087,0.193-0.172,0.281-0.272c1.898-2.138-1.287-6.853-2.678-8.531c-1.375-1.66-3.039-1.926-5.07-2.107
			c-1.77-0.158-3.262-0.519-4.799-0.192c-0.369-0.759-0.867-1.427-1.537-1.934c-1.531-1.158-3.391-0.945-5.182-0.793
			c-0.029,0.002-0.06,0.003-0.09,0.006c1.674-4.765-1.432-13.319-2.061-16.799c-0.941-5.205-1.19-10.594-2.327-15.745
			c-1.175-5.326,0.558-9.299,1.136-14.388c1.246-0.966,2.506-1.922,3.75-2.89c5.604-4.356,11.269-8.759,15.813-14.266
			c1.812-2.196,3.774-5.107,4.252-7.999c0.27-1.632-0.157-3.127-0.166-4.761c-0.002-0.305,0.013-0.607,0.037-0.908
			c2.909,1.751,7.326,1.746,10.46,1.179C284.102,351.921,284.194,353.885,284.054,355.845z M245.103,400.947
			c0.773,5.272,1.381,10.581,2.881,15.704c0.967,3.303,0.621,6.83,1.271,10.089c-2.248,0.05-4.496,0.012-6.765-0.085
			c-6.794-0.289-12.833-3.079-17.718-7.588c-2.443-2.256-4.799-4.891-5.726-8.234c-0.599-2.156,0.007-4.899,0.854-7.313
			c0.836-0.896,1.606-1.913,2.183-2.523c1.83-1.936,3.867-3.253,6.037-4.726c2.615-1.775,5.115-3.769,7.629-5.685
			c3.303-2.518,6.571-5.06,9.853-7.592C242.997,388.337,244.249,395.143,245.103,400.947z M352.085,331.176
			c-0.068,1.779-0.469,3.699-0.605,5.562c-0.301,0.201-0.577,0.458-0.813,0.765c-0.788,1.028-1.306,3.241-3.111,2.822
			c-1.71-0.396-2.573-4.865-2.925-6.372c-0.658-2.816-0.832-5.745-1.18-8.635c0.946-2.987,0.957-6.784,1.467-9.603
			c0.471-2.605,1.675-5.688,1.603-8.466c0.267-0.281,0.521-0.583,0.751-0.922c-0.014,5.704,0.779,11.489,4.279,14.339
			c0.365,0.298,0.711,0.538,1.045,0.75C351.866,324.548,352.194,328.282,352.085,331.176z M354.978,316.375
			c-1.428,0.941-1.755-1.304-2.193-2.839c-1.294-4.534-1.23-9.752-1.07-14.668c1.604,0.608,3.549,0.391,5.33-0.349
			c-0.309,2.949,0.395,7.186,0.658,7.951c0.173,0.504,0.42,0.976,0.697,1.428c-0.081,0.091-0.168,0.178-0.231,0.284
			c-0.913,1.517-1.237,3.162-1.755,4.843C356.121,313.976,355.874,315.784,354.978,316.375z M364.755,349.836
			c-2.09,1.295-5.311-3.138-6.074-4.358c-1.362-2.173-1.715-5.11-3.086-7.276c0.287-2.554,0.461-5.127,0.45-7.683
			c-0.011-2.542,0.341-5.613,0.122-8.424c1.797-0.71,2.859-3.234,3.689-5.86c0.712,4.029,1.244,8.573,3.387,11.589
			c-0.136,1.554,0.417,3.265,0.494,4.8c0.117,2.315,0.192,4.674,0.227,6.984c0.047,3.117-0.199,7.005,0.899,10.128
			C364.829,349.777,364.794,349.813,364.755,349.836z M373.696,352.383c-2.039-1.818-3.589-4.911-4.732-7.339
			c-0.65-1.381-1.152-2.834-1.455-4.371c-0.451-2.308-0.811-5.159-0.35-7.481c0.33-1.662,0.415-1.508,1.564-2.133
			c1.029-0.561,3.717-0.456,3.846-2.403c-0.328,4.956,1.569,10.466,2.176,15.266c0.219,1.737,0.352,3.483,0.569,5.22
			c0.069,0.549,0.985,2.854,0.905,3.186C375.776,354.136,374.725,353.301,373.696,352.383z M385.013,353.01
			c-0.152,1.408-0.854,2.395-2.715,2.105c-1.085-0.169-1.795-1.241-2.135-2.286c-1.109-3.421-1.352-7.035-1.992-10.571
			c-0.588-3.253-1.404-6.407-2.205-9.571c0.719,0.586,1.521,1.031,2.427,1.263c1.997,0.514,3.148,0.178,3.81-0.631
			c0.086,4.523,1.072,8.978,1.85,13.417C384.251,347.88,385.241,350.913,385.013,353.01z M393.241,364.027
			c-0.937-0.643-1.768-1.395-2.492-2.255c-0.11-0.116-0.203-0.251-0.307-0.374c-1.775-4.913-1.922-10.429-2.695-15.542
			c-0.441-2.916-0.742-6.619-1.502-10.024c1.182,0.98,2.574,1.798,3.982,2.09c0.749,2.234,0.955,4.889,1.394,6.916
			c0.774,3.574,1.388,7.134,2.073,10.725c0.277,1.445,0.609,3.573,1.506,5.088c0.095,1.014,0.205,2.037,0.005,2.679
			C395.519,365.148,394.864,365.38,393.241,364.027z M449.014,355.319c2.724,3.291,6.536,7.782,8.903,12.272
			c-1.265-1.183-2.441-2.484-3.5-3.5c-2.861-2.743-5.646-5.563-8.552-8.264c-2.661-2.475-5.29-5.09-8.206-7.27
			c-0.953-0.713-2.42-1.292-3.802-1.936c1.927-1.227,3.435-3.019,4.106-5.098C441.181,346.438,445.291,350.822,449.014,355.319z
			 M448.148,320.511c0.969-1.16,1.287-2.369,1.303-3.648c3.764,4.021,8.17,7.609,12.083,11.332c2.981,2.836,5.884,5.396,8.509,8.601
			c1.609,1.963,3.7,3.823,5.463,5.873c-1.777-1.415-3.52-2.877-5.188-4.136c-3.089-2.33-6.021-4.814-9.039-7.232
			c-3.72-2.981-8.846-8.142-13.934-10.004C447.636,321.054,447.91,320.794,448.148,320.511z M447.863,330.667
			c1.301,1.643,2.828,3.113,4.274,4.671c2.838,3.055,4.838,6.542,7.514,9.705c3.465,4.096,8.667,8.483,11.961,13.402
			c-5.418-3.781-10.29-8.726-15.367-12.695c-2.01-1.572-4.332-2.716-6.486-4.063c-2.297-1.436-4.213-3.561-6.449-4.97
			c-0.188-0.119-0.386-0.241-0.587-0.363C444.872,335.198,446.896,333.043,447.863,330.667z M493.884,104.639
			c-3.816-0.88-14.844-2.153-11.463,4.992c1.67,3.53,5.93,5.788,8.918,8.012c2.469,1.838,5.064,3.584,7.85,4.902
			c-1.873,1.256-3.948,2.119-6.166,2.125c-6.064,0.019-11.632-2.133-17.533-2.333c-4.314-0.146-10.125,0.421-14.654,2.609
			c-7.472,2.419-15.425,7.805-18.465,14.564c-2.152,4.787-1.751,11.382-2.537,16.565c-0.502,3.315-0.347,6.104-2.676,8.781
			c-1.885,2.165-3.787,3.38-5.307,5.853c-2.518,4.096-2.896,7.577-3.476,12.307c-0.681,5.553-2.528,11.589-5.159,16.497
			c-1.313,2.45-1.665,5.251-3.22,7.592c-1.915,2.884-4.864,5.002-7.188,7.542c-3.118,3.408-5.496,6.947-7.606,10.728
			c-2.099,1.638-3.589,5.146-4.804,7.026c-3.152,4.878-5.39,10.333-5.145,16.257c0.021,0.492,0.762,0.786,1.004,0.271
			c2.178-4.635,2.879-9.504,5.641-13.896c0.18-0.287,0.357-0.574,0.537-0.861c0.156-0.036,0.311-0.11,0.451-0.273
			c0.255-0.3,0.521-0.598,0.778-0.897c-0.37,1.816-0.586,3.63-0.649,5.283c-0.266,6.883-0.914,14.267-2.07,21.105
			c-0.53,3.133-1.906,4.313-3.652,6.53c-1.791,2.273-2.91,5.925-4.399,8.49c-2.05,3.53-4.404,6.104-8.219,7.699
			c-0.231,0.097-0.506,0.181-0.788,0.267c-1.221-1.775-2.276-3.88-3.076-5.316c-1.73-3.104-0.994-6.819-0.777-10.209
			c0.17-2.651,0.346-5.334,0.455-8.012c3.06-3.585,2.596-9.376,1.908-13.704c-1.014-6.375-4.072-9.84-7.463-15.105
			c-0.573-0.892-1.957-0.098-1.428,0.835c2.259,3.982,4.551,7.486,5.389,12.079c0.18,0.987,0.347,2.046,0.496,3.135
			c-0.854-2.733-2.192-5.292-4.135-7.606c-2.078-2.477-3.348-4.636-6.796-4.113c-0.698,0.106-0.462,1.111,0.157,1.161
			c2.375,0.189,3.699,3.372,4.673,5.15c2.079,3.799,3.13,7.435,3.2,11.804c0.105,6.645-1.334,13.274-1.658,19.882
			c-0.229,4.649,2.006,8.566,4.092,12.572c2.308,4.435,6.348,5.473,11.039,5.932c8.173,0.798,19.043-0.985,25.894,4.464
			c1.659,1.32,2.952,3.472,4.804,4.489c0.865,0.476,1.707,0.381,2.588,0.671c2.409,0.793,3.34,1.931,5.144,3.435
			c1.345,1.121,2.805,2.167,4.454,2.8c2.106,0.81,4.91,0.367,6.797,1.703c1.555,1.1,3.833,3.123,4.952,4.668
			c1.119,1.545,1.536,4.279-0.345,5.357c-1.747,1.002-4.126-1.282-5.956-2.058c-4.321-1.832-9.011-2.748-13.646-3.354
			c-0.518-0.068-0.834,0.731-0.436,1.054c4.822,3.914,11.587,4.593,16.131,8.664c0.975,0.873,3.033,3.018,3.312,4.39
			c0.429,2.113-2.396,5.875-4.74,5.904c-1.677,0.021-2.964-1.193-4.356-2.171c-1.809-2.318-3.91-4.473-5.678-6.539
			c-2.97-3.475-8.071-7.606-12.512-8.619c-0.419-0.096-0.854,0.473-0.459,0.79c6.07,4.889,11.898,10.813,16.32,17.244
			c0.607,0.883,2.041,2.842,2.115,3.993c0.158,2.442-3.016,5.583-5.597,5.238c-3.067-0.41-3.353-4.5-4.621-6.624
			c-2.925-4.896-7.521-7.348-12.481-9.637c-3.799-1.751-9.086-4.064-11.461-7.563c-2.67-3.934-2.85-8.16-3.608-12.728
			c-0.13-0.783-1.43-0.771-1.57,0c-0.927,5.098-0.579,9.781,1.888,14.375c2.318,4.317,6.033,6.055,10.14,8.402
			c3.574,2.043,6.679,3.103,8.915,6.698c2.824,4.538,3.87,9.34,3.609,14.599c-0.07,1.408-0.027,3.353-0.909,4.543
			c-1.423,1.921-5.485,2.265-7.435,0.588c-1.352-1.162-3.133-0.639-3.754,0.991c-0.605,1.587-0.395,6.009-1.765,6.639
			c-4.36,2.003-8.808-10.99-9.352-13.686c-0.745-3.689-1.54-7.383-2.834-10.926c-0.126-0.343-0.255-0.695-0.39-1.045
			c1.037-0.468,1.746-1.258,2.209-2.242c1.44,3.33,3.336,6.603,4.563,9.772c1.268,3.276,1.957,9.32,6.066,10.417
			c0.583,0.155,1.027-0.371,0.921-0.921c-1.673-8.62-7.028-15.852-10.868-23.624c-0.189-3.788-1.831-8.032-3.278-9.82
			c-0.841-1.039-2.243,0.121-2.041,1.188c0.532,2.808,2.761,13.732-3.037,9.367c-2.857-2.151-2.589-6.097-4.404-8.792
			c-0.685-1.017-2.297-1.187-2.944,0c-0.693,1.27-0.052,3.138-0.656,4.163c-2.325,3.941-4.953-7.178-5.066-8.254
			c-0.271-2.576-4.024-2.695-4.104,0c-0.076,2.616-1.145,10.475-4.059,4.902c-0.657-1.257-1.199-2.56-1.625-3.909
			c-0.877-2.784-1.117-5.787-1.863-8.612c0.639,0.151,1.297,0.231,1.969,0.179c2.505-0.193,3.688-1.548,4.375-3.317
			c0.175,0.9,0.496,1.782,0.913,2.604c1.032,2.031,2.759,4.417,5.278,4.303c2.008-0.091,3.768-1.188,4.908-2.778
			c0.512,1.19,1.443,2.025,3.097,2.033c3.091,0.014,4.272-3.553,3.259-5.933c-0.156-0.365-0.766-0.339-0.93,0
			c-0.047,0.095-0.424,0.719-0.265,0.646c-0.241,0.198-0.524,0.385-0.755,0.615c-0.313,0.313-0.93,1.139-1.375,1.152
			c-0.459,0.014-0.803-0.946-0.943-1.317c-0.474-1.247-0.467-2.595-0.535-3.906c-0.067-1.27-1.889-1.265-1.971,0
			c-0.08,1.241-0.256,3.047-0.07,4.697c-2.172,0.752-3.969,1.857-5.955,0.168c-1.369-1.163-2.084-3.22-2.01-4.982
			c0.519,0.111,1.053,0.147,1.589,0.071c1.38-0.195,3.16-0.708,4.003-1.859c0.327-0.447,0.148-1.107-0.19-1.48
			c-1.694-1.863-3.612,0.748-5.464-0.183c-2.127-1.069-1.059-4.738-1.375-6.647c-0.072-0.433-0.688-0.445-0.889-0.116
			c-1.375,2.263-2.272,6.265-0.451,8.554c-0.021,0.009-0.041,0.011-0.061,0.022c-1.264,0.678-1.814,1.833-2.8,2.79
			c-2.524,2.453-5.041-0.432-5.747-2.842c-0.313-1.069-1.691-5.074-1.094-6.619c1.389-1.103,2.41-2.545,2.68-4.102
			c0.771-0.053,1.541-0.253,2.226-0.522c1.143-0.448,2.648-1.095,3.549-1.944c0.829-0.782,1.446-2.31,0.355-3.161
			c-0.858-0.671-1.874,0-2.696,0.416c-1.071,0.542-2.297,1.421-3.463,1.683c-0.966,0.216-1.448,0.16-1.387-0.891
			c0.061-1.02,0.443-1.996,0.809-2.94c0.436-1.122-1.401-1.888-1.943-0.819c-1.094,2.153-2.641,5.573-0.448,7.335
			c-0.878,0.749-1.782,1.485-2.707,2.096c-2.193,1.446-3.794,1.132-4.336-1.535c-0.757-3.73-0.545-8.28,1.12-11.797
			c0.211-0.445-0.041-0.946-0.555-0.968c-2.334-0.1-3.438,4.557-3.939,6.235c-0.6,2.005-0.869,4.851-0.476,7.362
			c-0.03,0.043-0.063,0.082-0.091,0.129c-1.08,1.848-2.355,8.147-3.918,8.889c-5.451,2.587-2.557-12.598-2.253-14.482
			c1.462-9.068,3.829-17.756,6.163-26.597c0.234-0.885-1.146-1.548-1.535-0.648c-2.782,6.443-5.035,12.199-6.699,19.053
			c-1.621,6.674-3.744,14.459-2.888,21.407c0.374,3.041,2.306,7.143,5.663,7.442c-0.846,2.459-1.274,5.153-1.729,7.556
			c-0.3,1.585-0.704,3.253-0.96,4.926c-0.195,0.091-0.381,0.202-0.541,0.348c-1.019,0.93-1.445,2.252-2.03,3.476
			c-0.599,1.253-2.203,6.609-3.336,7.082c0.636-0.265-0.614-7.597-0.511-8.976c0.248-3.332,0.735-6.675,1.26-9.97
			c0.406-2.548,2.727-13.056-3.102-10.894c-0.95,0.352-3.222,3.806-3.572,3.694c-1.03-0.33,0.182-8.354,0.306-9.121
			c0.979-6.028,1.929-11.997,3.238-17.966c1.276-5.816,3.235-11.535,4.97-17.234c1.818-5.973,3.203-11.771,5.969-17.397
			c0.414-0.842-0.813-1.582-1.27-0.743c-1.932,3.549-3.698,7.25-5.34,11.026c0.81-4.284,1.64-8.557,2.674-12.802
			c0.092-0.375-0.463-0.646-0.648-0.273c-3.656,7.406-4.66,15.335-6.1,23.241c-1.193,3.199-2.327,6.408-3.402,9.586
			c-2.143,6.33-3.087,12.98-4.231,19.526c-0.772,4.416-2.296,9.405-0.069,13.677c1.291,2.478,3.78,4.24,6.406,2.516
			c0.148-0.098,0.282-0.219,0.41-0.346c-0.021,0.864-0.037,1.644-0.101,2c-0.671,3.818-2.432,11.428-1.833,17.495
			c-0.854,0.404-1.664,1.03-2.354,1.537c-0.563,0.414-1.323,0.901-2.109,1.295c-3.144,0.229-5.866,0.588-9.026,1.802
			c-2.181,0.837-4.22,2.056-6.482,2.664c-2.513,0.675-5.104,0.345-7.637,0.965c-4.275,1.047-8.031,3.083-11.824,5.22
			c-4.072,2.295-10.66,5.207-15.443,3.145c0.334-1.182,0.745-2.349,1.1-3.516c1.107-3.646,3.031-6.979,4.006-10.648
			c0.953-3.583,1.43-7.298,1.748-10.984c0.699-8.115-2.147-15.618-6.276-22.367c-3.14-5.134-6.231-9.718-8.269-14.857
			c0.699-2.154,0.953-4.627,1.119-6.676c0.066-0.814,0.193-1.664,0.271-2.508c0.464-2.636,0.365-5.288-0.099-8.586
			c-0.832-5.915-2.543-11.815-5.197-17.172c-0.527-1.065-2.009-0.13-1.564,0.915c3.863,9.083,3.807,18.248,3.824,27.74
			c-0.033,0.146-0.063,0.291-0.095,0.436c-0.288-1.45-0.501-2.951-0.583-4.547c-0.369-7.198,0.436-14.877-7.297-18.312
			c-0.727-0.323-1.686,0.616-0.938,1.217c4.367,3.509,4.68,8.871,4.631,14.031c-0.043,4.712,0.217,9.043,1.35,13.611
			c1.744,7.033,6.01,12.786,9.367,19.096c4.164,7.821,4.757,16.146,3.15,24.796c-1.275,6.865-5.61,12.987-6.407,19.997
			c-7.394,0.19-14.532,5.545-21.909,4.559c-0.584-0.078-0.766,0.82-0.292,1.077c4.202,2.275,9.675,0.583,13.938-0.555
			c2.105-0.563,5.796-0.867,8.085-2.319c-0.255,4.302-1.085,7.188-4.388,10.633c-2.227,2.321-4.411,4.625-6.863,6.722
			c-5.418,4.632-10.971,9.113-16.513,13.59c-5.099,4.119-10.04,8.434-15.302,12.34c-2.794,2.075-8.063,6.726-8.544,10.932
			c-1.07,2.474-1.517,5.34-1.077,7.495c1.125,5.518,6.033,11.178,10.192,14.617c4.206,3.477,11.722,5.356,17.066,5.517
			c3.589,0.107,6.95-0.49,10.488-0.819c2.494-0.232,2.708-0.663,3.772,1.529c0.643,1.323,0.803,2.926,1.146,4.434
			c-0.688,0.313-1.398,0.582-2.131,0.698c-1.203,0.191-2.347-0.106-3.48,0.094c-1.227-0.708-2.583-1.228-3.694-1.551
			c-3.896-1.132-6.85,0.695-10.452,1.981c-0.805,0.287-0.68,1.451,0.202,1.496c2.587,0.133,5.331-0.959,7.84-0.552
			c0.35,0.057,5.956,1.822,5.459,3.867c-0.157,0.648-2.808,1.051-3.431,1.095c-4.525,0.323-9.074-0.183-13.607,0.329
			c-6.121,0.691-12.307,1.697-18.45,2.087c-0.491,0.031-1.474,0.135-2.636,0.236c-0.15-0.144-0.328-0.263-0.541-0.34
			c-0.795-0.287-5.498-2.195-6.006-3.104c-0.723-1.294,0.321-3.073,0.697-4.365c1.211-4.174,2.15-8.117,1.877-12.519
			c-0.516-8.299-3.782-15.257-7.793-22.281c-2.201-3.855-6.582-9.434-4.531-14.158c1.471-3.383,4.921-4.741,7.764-6.59
			c6.118-3.979,9.449-12.212,13.365-18.087c3.494-5.241,9.203-13.373,5.518-19.846c-1.302-2.288-3.775-3.928-5.719-5.629
			c-1.922-1.684-3.664-3.554-5.566-5.289c-7.139-6.507-10.322-13.627-12.474-22.916c-0.917-3.956-0.862-8.182-1.5-12.204
			c-0.357-2.26-0.357-15.249-1.531-15.385c-3.45-0.398-1.771,15.975-1.636,18.136c0.295,4.758,0.526,9.093,1.164,13.537
			c-4.877-0.2-9.787,0.457-14.674,0.231c-5.822-0.27-11.699-1.002-17.342-2.446c-0.984-0.252-1.393,1.234-0.419,1.52
			c11.018,3.23,21.423,4.772,32.694,2.41c0.274,1.636,0.611,3.295,1.037,5.006c0.861,3.451,2.801,7.119,5.148,10.299
			c-7.469-2.198-15.033-3.207-22.857-3.723c-9.68-0.638-17.188-4.577-25.86-8.523c-1.942-0.884-3.585-1.525-5.706-1.819
			c-3.619-0.502-7.036-0.868-10.527-1.99c-3.158-1.014-6.042-2.471-9.34-3.072c-6.036-1.1-10.336-3.541-15.777-6.331
			c-6.021-3.088-9.783-7.689-16.461-9.749c-6.623-2.043-11.168-6.102-17.234-8.957c-2.549-1.2-5.147-2.119-7.53-3.667
			c-2.823-1.833-4.49-4.578-7.072-6.499c-1.463-1.088-2.948-1.279-4.729-1.218c-3.597,0.123-3.299-0.808-5.832-2.787
			c-1.681-1.314-2.553-0.053-4.236-0.498c-1.461-0.386-1.674-1.702-3.551-1.547c-2.265,0.186-4.789,2.624-6.966,0.816
			c-1.394-1.157-1.515-3.437-2.669-4.9c-0.6-0.759-1.928-0.631-2.545,0c-0.904,0.924-2.039,2.65-3.573,2.441
			c-1.325-0.181-2.786-2.616-2.362-3.831c0.691-1.979-2.235-3.751-3.603-2.098c-0.952,1.152-1.431,2.552-2.505,2.704
			c-1.228,0.174-4.674-3.077-3.145-4.427c2.131-2.365-1.15-5.675-3.5-3.5c-1.467,1.554-3.982,3.064-4.771-0.189
			c-0.457-1.876,0.875-4.795,1.357-6.57c0.325-1.199-0.403-2.706-1.688-2.972c-2.639-0.547-4.651-0.621-3.141-4.186
			c0.918-2.167,2.092-4.311,3.172-6.404c0.617-1.197,0.174-3.125-1.379-3.388c-3.588-0.606-5.334,0.3-3.177-3.75
			c1.348-2.531,3.56-3.772,5.462-5.798c1.455-1.551,0.346-3.825-1.652-3.988c-0.137-0.011-1.57-0.013-2.703-0.098
			c1.844-2.233,4.33-3.633,6.672-5.433c1.24-0.953,2.594-2.237,2.321-3.991c-0.348-2.24-4.229-2.623-3.45-5.307
			c0.764-2.636,3.345-1.137,5.006-0.95c1.727,0.195,3.135-2.232,2.082-3.626c-1.48-1.958-5.377-8.243-0.566-9.169
			c0.582-0.112,3.594,1.229,4.188,1.544c1.763,0.933,3.724-0.241,3.834-2.2c0.163-2.908-0.459-4.902,2.695-1.508
			c1.556,1.674,2.947,2.713,4.855,3.928c1.28,0.815,3.219,0.044,3.558-1.448c0.783-3.448,2.522-1.748,3.818,0.341
			c1.381,2.226,1.476,4.978,2.337,7.387c0.509,1.428,2.714,2.047,3.505,0.458c0.515-1.032,0.88-2.211,1.371-3.295
			c2.54,4.092,2.79,10.358,2.175,14.638c-0.236,1.648,1.725,3.349,3.109,1.81c0.319-0.355,0.703-1.077,1.104-1.889
			c-0.112,2.758-0.711,5.599-0.998,8.099c-0.503,4.39-0.754,8.957-0.925,13.367c-0.196,5.075,0.412,10.411,2.835,14.823
			c-1.472-0.77-2.871-1.664-4.116-2.818c-0.513-0.476-1.009-0.958-1.505-1.441c-0.02-0.026-0.027-0.059-0.053-0.081
			c-1.157-1.006-2.183-2.329-3.127-3.77c-0.293-4.727-2.231-9.343-3.102-13.973c-1.252-6.661-0.467-13.255-1.321-19.913
			c-0.06-0.461-0.802-0.684-0.903-0.123c-1.104,6.092-2.052,11.838-1.035,18.032c0.477,2.903,1.205,5.751,2.111,8.543
			c-0.087-0.149-0.175-0.31-0.262-0.454c-4.682-7.792-5.652-16.289-7.328-25.045c-0.144-0.756-1.164-0.481-1.237,0.167
			c-1.212,10.637,0.711,19.4,6.284,28.482c0.697,1.136,1.84,3.497,3.277,5.572c5.117,10.602,14.967,13.289,25.588,17.006
			c4.766,1.668,7.61,2.876,11.955,0.162c6.881-4.297,14.502-0.821,21.697,0.794c11.057,2.481,24.832,1.376,34.631-4.52
			c5.912-3.558,12.642-4.716,19.328-6.078c0.509-0.104,8.98-1.177,13.736-2.479c6.263-0.761,12.313-3.157,18.111-5.517
			c6.393-2.601,13.979-6.033,19.208-10.565c1.244-1.078,0.534-3.202-0.95-3.6c-0.056-0.008-0.106-0.027-0.16-0.038
			c2.828-1.838,7.932-3.423,9.83-4.231c5.279-2.244,10.799-4.301,16.584-4.469c3.121-0.091,3.039-4.529,0-4.789
			c-0.389-0.033-0.777-0.088-1.166-0.13c5.395-2.502,10.758-4.862,16.65-6.646c1.777-0.538,2.571-3.506,0.57-4.375
			c-0.043-0.019-0.115-0.041-0.173-0.062c3.153-1.009,6.335-1.927,9.593-2.552c4.092-0.785,8.783-0.267,12.547-2.253
			c1.299-0.686,1.024-2.367,0-3.111c-1.35-0.98-3.007-0.844-4.598-1.178c-0.975-0.205-3.013-0.535-4.785-1.064
			c1.022-0.151,1.992-0.257,2.495-0.354c3.245-0.625,6.574-0.781,9.87-0.682c5.912,0.175,12.064,0.705,17.946,1.326
			c6.069,0.64,11.91,2.117,18.057,1.39c5.702-0.675,10.31-3.634,15.584-5.533c5.467-1.967,11.091-3.35,16.552-5.351
			c4.848-1.777,9.545-3.824,14.307-5.818c5.883-2.463,13.444-5.969,17.988-11.03c0.559-0.387,1.12-0.767,1.677-1.157
			c2.897-2.028,6.675-4.529,7.938-8.033c0.578-1.601,0.252-3.324,0.44-5.004c0.364-3.262,2.044-5.814,3.956-8.423
			c1.868-2.548,4.128-4.423,3.305-7.701c-0.639-2.549-1.406-2.985,0.275-5.607c1.32-2.059,3.008-4.129,4.813-5.795
			c1.441-1.331,3.73-2.314,2.496-4.644c-0.422-0.797-1.068-1.466-1.42-2.296c-0.883-2.088,1.133-3.508,2.277-4.89
			c2.37-2.862,5.877-5.66,7.478-8.999c1.257-2.622-3.798-3.857-3.839-3.779c2.205-4.17,8.082-5.698,10.15-10.248
			c0.696-1.531-0.155-3.016-1.832-3.179c-0.438-0.043-1.539,0.007-2.498-0.042c3.499-3.549,9.428-6.741,13.47-8.301
			c1.627-0.628,1.599-3.456-0.448-3.306c-0.705,0.052-2.066,0.269-3.404,0.394c2.585-1.48,5.571-2.68,8.09-3.459
			c2.333-0.722,5.263-0.288,7.449-1.484c0.67-0.367,0.751-1.313,0.236-1.838c-1.426-1.457-3.573-1.897-5.076-3.215
			c5.668-1.964,13.523-1.374,18.654,0.479c4.885,1.765,8.754,5.191,13.596,6.792c4.431,1.465,9.738,1.465,13.73,3.957
			c0.211,0.132,0.438,0.311,0.674,0.513c0.004,0.023,0.001,0.046,0.008,0.069c0.673,2.473,2.832,4.411,4.893,5.844
			c1.554,1.081,3.328,1.708,4.938,2.706c1.791,1.11,3.322,2.575,5.168,3.615c5.023,2.829,10.673,4.199,13.316,9.979
			C510.333,110.616,499.007,105.821,493.884,104.639z"/>
	</g>
</g>
<g>
	<g>
		<path d="M388.02,301.994c-0.182-0.566-0.874-0.616-1.2-0.157c0.213-0.298,0.301-0.119-0.207-0.188
			c-0.19-0.026-0.398-0.003-0.59-0.004c-0.703-0.004-1.225-0.042-1.912-0.296c-1.653-0.612-2.301-1.39-3.199-2.897
			c-0.834-1.398-2.936-0.16-2.178,1.273c1.259,2.379,2.912,4.551,5.773,5.051C386.008,305.039,388.631,303.896,388.02,301.994z"/>
	</g>
</g>
<g>
	<g>
		<path d="M330.774,243.938c-1.751,4.277-2.806,9.157-3.646,13.698c-0.724,3.906-1.794,7.752-1.805,11.753
			c-0.002,0.82,1.146,0.936,1.394,0.188c2.701-8.168,2.744-17.083,5.78-25.165C332.904,243.325,331.2,242.896,330.774,243.938z"/>
	</g>
</g>
<g>
	<g>
		<path d="M382.887,229.289c-0.306-0.654-1.343-0.19-1.152,0.486c1.138,4.011,1.472,8.119,1.863,12.262
			c0.305,3.234,0,6.554,0.764,9.716c0.256,1.06,1.859,1.042,2.127,0C388.329,244.576,385.941,235.797,382.887,229.289z"/>
	</g>
</g>
<g>
	<g>
		<path d="M402.341,217.386c-2.285,2.737-3.875,5.829-5.379,9.04c-0.674,1.438-1.393,2.842-1.984,4.317
			c-0.648,1.615-0.945,3.608-1.756,5.116c-0.193,0.359,0.184,0.668,0.521,0.521c2.339-1.016,3.077-5.358,3.954-7.338
			c1.664-3.758,3.146-7.576,5.654-10.877C403.79,217.588,402.808,216.825,402.341,217.386z"/>
	</g>
</g>
<g>
	<g>
		<path d="M425.003,175.817c-0.02-0.385-0.602-0.5-0.697-0.095c-1.904,8.037-5.816,15.752-8.848,23.412
			c-0.336,0.85,1.127,1.476,1.488,0.627C419.977,192.634,425.38,183.76,425.003,175.817z"/>
	</g>
</g>
<g>
	<g>
		<path d="M427.293,165.294c-3.235,2.681-5.97,6.172-7.714,10.005c-1.244,2.734-3.479,6.457-2.813,9.569
			c0.059,0.271,0.473,0.324,0.6,0.078c3.398-6.549,6.939-12.688,10.896-18.905C428.662,165.414,427.804,164.872,427.293,165.294z"/>
	</g>
</g>
<g>
	<g>
		<path d="M314.013,324.431c-9.434,4.125-20.049,7.902-30.285,9.138c-0.668,0.081-0.711,1.102,0,1.077
			c5.965-0.209,11.703-1.543,17.418-3.263c4.304-1.295,10.166-2.938,13.473-6.168C315.052,324.791,314.503,324.216,314.013,324.431z
			"/>
	</g>
</g>
<g>
	<g>
		<path d="M314.401,317.972c-8.193,3.968-14.936,8.85-24.511,7.809c-0.845-0.092-1.048,1.353-0.202,1.496
			c9.405,1.595,18.815-1.12,25.73-7.985C316.125,318.592,315.234,317.568,314.401,317.972z"/>
	</g>
</g>
<g>
	<g>
		<path d="M481.631,115.177c-4.97-1.076-5.417-6.505-6.632-10.577c-0.079-0.265-0.447-0.15-0.404,0.112
			c0.52,3.229,0.119,6.486,1.857,9.364c1.053,1.744,3.39,3.301,5.28,1.87C481.993,115.748,482.021,115.262,481.631,115.177z"/>
	</g>
</g>
<g>
	<g>
		<path d="M476.009,114.973c-0.564-0.143-0.988-0.489-1.514-0.706c-0.677-0.28-1.367-0.381-1.939-0.884
			c-1.045-0.917-1.543-2.481-1.786-3.809c-0.096-0.521-0.966-0.406-0.929,0.125c0.113,1.628,0.547,3.67,1.799,4.824
			c1.008,0.929,3.031,1.544,4.369,1.108C476.316,115.531,476.349,115.059,476.009,114.973z"/>
	</g>
</g>
<g>
	<g>
		<path d="M249.7,259.849c-0.777,2.329-0.489,2.885-3.111,3.876c-2.676,1.012-2.574,0.467-3.934-1.392
			c-0.004-0.007-0.006-0.015-0.01-0.022l-0.004,0.003c-0.094-0.127-0.193-0.26-0.302-0.4c-1.178-1.515-3.991,0.134-3.274,1.906
			c1.169,2.882,0.684,6.96,0.184,10.004c-0.589,3.589-1.1,6.765-4.502,2.358c-0.945-1.224-1.294-2.951-2.068-4.322
			c-0.717-1.268-3.089-1.164-3.344,0.437c-0.328,2.056-0.145,4.032-0.028,6.106c0.14,2.501,0.882,9.951-3.026,7.144
			c-3.74-2.688-2.952-9.297-4.59-13.131c-0.764-1.787-3.051-0.582-3.23,0.875c-0.351,2.857-1.121,5.801-2.371,8.369
			c-0.152,0.314-0.759,1.485-1.008,1.661c-1.275,0.894-1.068,0.686-1.877-0.495c-1.199-1.752-0.467-6.79-0.328-8.944
			c0.151-2.349,0.338-4.465,0.012-6.796c-0.188-1.354-2.247-1.458-2.838-0.371c-1.045,1.92-1.721,4.168-3.108,5.876
			c-1.39,1.71,0.225,2.403-2.857,1.381c-2.895-0.959-1.882-2.11-1.429-5.14c0.746-4.986,1.42-10.083,2.549-15
			c0.125-0.544-0.614-0.881-0.912-0.384c-2.34,3.898-3.133,9.378-4.215,13.77c-0.859,3.48-2.166,8.076,0.234,11.276
			c3.243,4.324,6.328,1.307,8.678-2.625c-0.641,6.046-0.667,12.828,4.471,13.27c3.523,0.303,5.614-2.899,6.842-6.637
			c0.979,4.372,2.725,8.447,7.409,8.733c5.08,0.311,5.502-5.821,5.325-11.16c2.051,2.809,4.735,4.558,8.119,1.36
			c2.416-2.284,2.275-5.525,2.492-8.612c0.088-1.248,0.178-2.472,0.203-3.681c1.233,0.788,2.639,1.166,4.281,0.685
			c3.96-1.162,4.739-5.448,5.746-8.826C254.681,258.311,250.577,257.22,249.7,259.849z"/>
	</g>
</g>
<g>
	<g>
		<path d="M225.553,336.804c-2.013-4.865-5.603-8.811-7.601-13.63c-2.461-5.932-3.261-12.106-3.473-18.484
			c-0.018-0.555-0.879-0.722-1.006-0.136c-2.3,10.684,1.221,26.794,11.502,32.695C225.245,337.404,225.692,337.138,225.553,336.804z
			"/>
	</g>
</g>
<g>
	<g>
		<path d="M235.178,342.348c-4.736-8.497-12.827-16.565-13.567-26.732c-0.086-1.168-1.895-1.191-1.839,0
			c0.465,9.968,6.144,21.607,14.025,27.798C234.543,344,235.699,343.282,235.178,342.348z"/>
	</g>
</g>
<g>
	<g>
		<path d="M318.943,264.625c-0.075-1.116-1.739-1.466-2.036-0.273c-0.632,2.527-1.555,4.992-2.382,7.462
			c-0.196,0.588-0.267,1.398-0.601,1.925c-1.103,1.739-0.125,2.333-1.665,0.439c-1.192-1.468-0.866-2.512-2.671-3.127
			c-0.752-0.257-1.721,0.166-2.096,0.853c-1.52,2.78-1.66,6.378-3.059,9.325c-0.22,0.461-1.1,2.667-1.59,2.739
			c-0.641,0.095-1.486-3.656-1.576-4.046c-0.529-2.307-0.51-4.669-1.512-6.815c-0.365-0.782-1.568-0.867-2.123-0.274
			c-1.107,1.186-1.59,2.742-2.246,4.213c-0.531,1.187-2.978,7.838-4.878,8.188c-2.565,0.473,1.318-13.216,1.342-15.486
			c0.008-0.776-0.956-1.135-1.497-0.62c-1.403,1.336-8.548,11.086-10.693,8.885c-1.066-1.094,2.621-9.303,3.084-10.321
			c1.075-2.37,2.277-4.809,3.7-6.99c0.349-0.536-0.425-1.094-0.866-0.668c-2.936,2.825-5.115,6.743-6.59,10.505
			c-0.982,2.51-3.658,8.297-1.311,10.881c1.425,1.567,2.911,0.842,4.344-0.229c2.705-2.022,4.52-5.087,6.672-7.785
			c-2.186,5.626-5.442,14.636-0.404,16.133c5.198,1.544,7.406-6.299,9.396-11.317c0.449,4.874,1.505,11.532,6.445,9.638
			c4.137-1.585,4.537-6.763,5.498-10.89c0.643,1.164,1.486,2.363,2.643,2.723c1.889,0.589,3.348-0.197,4.526-1.678
			C319.683,274.391,319.235,268.924,318.943,264.625z"/>
	</g>
</g>
<g>
	<g>
		<path d="M34.994,246.272c-4.651-4.573-9.686-8.773-14.685-12.955c-0.568-0.475-1.552,0.133-1.094,0.844
			c3.032,4.699,6.583,8.316,10.798,11.94c3.692,3.174,8.891,6.954,11.15,11.375c0.121,0.237,0.488,0.119,0.488-0.133
			C41.651,253.11,37.825,249.055,34.994,246.272z"/>
	</g>
</g>
<g>
	<g>
		<path d="M34.368,236.837c-2.123-4.116-4.664-8.003-6.497-12.273c-1.146-2.668-2.386-10.337-6.093-10.65
			c-0.518-0.044-0.705,0.631-0.399,0.964c1.114,1.213,1.407,4.464,1.962,6.063c0.955,2.756,1.893,5.456,3.219,8.063
			c2.406,4.73,5.287,9.611,8.92,13.516c0.27,0.29,0.721,0.051,0.74-0.306C36.325,240.247,35.238,238.523,34.368,236.837z"/>
	</g>
</g>
<g>
	<g>
		<path d="M31.607,223.003c-1.113-3.121-2.101-6.339-2.768-9.589c-0.691-3.365-0.183-7.183-2.204-10.08
			c-0.241-0.346-0.794-0.23-0.808,0.219c-0.216,7.369,0.947,13.485,4.675,19.916C30.835,224.044,31.842,223.664,31.607,223.003z"/>
	</g>
</g>
<g>
	<g>
		<path d="M46.257,262.568c-4.393-2.28-8.213-4.555-12.102-7.65c-2.902-2.311-5.571-4.971-8.977-6.524
			c-0.742-0.339-1.293,0.608-0.637,1.088c6.833,5,12.198,13.642,21.33,14.506C46.628,264.06,46.903,262.904,46.257,262.568z"/>
	</g>
</g>
<g>
	<g>
		<path d="M177.578,271.912c-0.035-0.696-0.916-0.764-1.16-0.157c-1.621,4.021-4.322,7.744-6.82,11.255
			c-1.006,1.412-2.136,3.489-3.538,4.589c-4.101,3.22-1.593-4.309-0.911-5.736c0.555-1.16-0.898-2.516-1.884-1.454
			c-1.321,1.425-3.972,5.719-6.102,5.805c-3.588,0.144-0.325-5.544,0.285-7.217c0.335-0.92-0.687-1.832-1.567-1.567
			c-1.35,0.405-1.547,0.885-2.586,1.933c-0.891,0.896-1.67,1.653-2.722,2.369c0.071-0.048-6.278,3.505-3.751-0.851
			c0.736-1.267-0.762-2.879-2.057-2.057c-1.815,1.154-3.686,2.892-5.607,3.804c-6.704,3.181-3.352-0.122-1.882-1.917
			c0.628-0.768,0.317-2.33-0.916-2.212c-4.095,0.392-7.487,3.004-11.763,3.207c-1,0.045-1.111,1.331-0.227,1.674
			c3.113,1.212,5.529,0.315,8.08-0.765c-0.613,1.082-0.71,2.238,0.645,3.516c2.674,2.524,6.672,0.29,9.775-2.013
			c0.084,1.384,0.811,2.514,2.785,2.744c3.178,0.37,5.383-1.914,7.508-4.068c-1.117,2.948-1.729,6.136,1.469,7.141
			c3.038,0.955,5.755-1.365,7.805-3.984c-0.362,3.668-0.168,7.543,4.346,4.652c2.505-1.605,4.476-5.362,6.025-7.766
			C174.849,279.672,177.785,275.881,177.578,271.912z"/>
	</g>
</g>
<g>
	<g>
		<path d="M115.435,278.941c-0.276-0.707-1.012-0.902-1.603-0.423c-3.031,2.462-4.569,4.684-6.887,0.53
			c-0.342-0.615-1.01-0.773-1.65-0.672c-1.6,0.252-9.348,5.104-5.403,0.336c1.021-1.232-0.536-2.824-1.765-1.764
			c-1.606,1.388-7.279,2.835-6.123-0.663c0.411-1.245,3.76-2.819,4.976-3.609c0.171-0.112,0.142-0.37-0.057-0.432
			c-2.946-0.921-10.494,3.843-9.325,7.398c0.866,2.635,4.934,2.172,8.239,1.056c-0.295,1.122-0.15,2.228,0.917,3.011
			c2.417,1.772,5.705-1.082,8.214-2.16c1.244,2.458,1.947,4.392,5.571,3.211C112.759,284.036,116.524,281.729,115.435,278.941z"/>
	</g>
</g>
<g>
	<g>
		<path d="M265.255,342.122c-6.053,0.838-13.063,4.145-18.938,1.087c-0.928-0.482-1.728,0.867-0.822,1.406
			c3.076,1.833,5.91,2.516,9.501,2.167c3.766-0.366,7.827-0.649,11.019-2.86C266.975,343.256,266.348,341.97,265.255,342.122z"/>
	</g>
</g>
<g>
	<g>
		<path d="M269.848,378.463c-1.064-0.247-1.979-0.278-3.074-0.286c-1.383-0.008-2.074-0.457-3.08-1.344
			c-0.574-0.504-1.338,0.262-0.836,0.835c0.808,0.924,1.56,1.786,2.814,2.034c1.459,0.289,2.775,0.06,4.176-0.302
			C270.303,379.282,270.319,378.572,269.848,378.463z"/>
	</g>
</g>
<g>
</g>
<g>
</g>
<g>
</g>
<g>
</g>
<g>
</g>
<g>
</g>
<g>
</g>
<g>
</g>
<g>
</g>
<g>
</g>
<g>
</g>
<g>
</g>
<g>
</g>
<g>
</g>
<g>
</g>
</svg>
