<?xml version="1.0" standalone="no"?>
<!DOCTYPE svg PUBLIC "-//W3C//DTD SVG 20010904//EN"
 "http://www.w3.org/TR/2001/REC-SVG-20010904/DTD/svg10.dtd">
<svg version="1.0" xmlns="http://www.w3.org/2000/svg"
 width="183.000000pt" height="217.000000pt" viewBox="0 0 183.000000 217.000000"
 preserveAspectRatio="xMidYMid meet">

<g transform="translate(0.000000,217.000000) scale(0.100000,-0.100000)"
fill="#000000" stroke="none">
<path d="M840 2015 c0 -17 -2 -17 -10 -5 -8 12 -10 11 -10 -7 0 -12 -5 -23
-11 -25 -8 -3 -8 -14 0 -38 10 -34 10 -34 8 -5 -1 18 3 30 11 31 6 1 17 2 22
3 13 1 13 31 0 51 -8 12 -10 12 -10 -5z"/>
<path d="M917 2017 c-4 -10 -7 -28 -7 -39 0 -15 5 -19 20 -15 11 3 20 1 20 -4
0 -5 5 -9 10 -9 6 0 10 7 10 15 0 8 -4 15 -10 15 -5 0 -10 10 -10 23 0 16 -3
19 -9 8 -7 -11 -10 -10 -13 5 -3 18 -4 18 -11 1z"/>
<path d="M754 1973 c4 -8 2 -13 -5 -13 -8 0 -7 -5 2 -17 8 -9 9 -14 3 -10 -7
4 -15 0 -18 -9 -4 -9 -13 -14 -21 -10 -8 3 -15 1 -15 -5 0 -6 -5 -7 -12 -3 -8
5 -9 2 -5 -9 3 -10 2 -17 -4 -17 -6 0 -8 -4 -4 -9 3 -5 0 -13 -6 -17 -8 -5 -9
-3 -4 6 6 9 4 11 -5 5 -10 -6 -8 -12 9 -27 30 -24 45 -23 38 2 -3 11 0 23 5
27 7 3 8 1 4 -5 -4 -7 -2 -12 3 -12 10 0 16 21 12 43 -2 11 14 8 28 -5 11 -11
11 -9 2 9 -10 19 -9 22 4 17 21 -9 20 39 -2 57 -11 10 -14 10 -9 2z m-34 -83
c0 -5 -2 -10 -4 -10 -3 0 -8 5 -11 10 -3 6 -1 10 4 10 6 0 11 -4 11 -10z"/>
<path d="M1002 1968 c-15 -15 -16 -58 -1 -58 6 0 8 -7 4 -17 -5 -15 -4 -16 6
-5 7 6 20 12 28 12 12 0 12 -3 3 -12 -16 -16 -15 -31 2 -25 10 4 13 -2 12 -23
-1 -19 2 -26 11 -23 7 3 13 9 13 15 0 5 4 7 9 3 6 -3 19 5 30 17 17 18 21 19
21 5 0 -8 -4 -19 -10 -22 -5 -3 -10 -12 -10 -20 0 -19 69 25 70 45 1 10 4 8 9
-5 5 -11 4 -28 0 -37 -8 -14 -3 -13 26 5 22 14 34 28 31 39 -2 10 1 15 9 12 7
-3 16 -1 20 5 3 6 15 11 26 11 11 0 18 -4 14 -10 -3 -5 -13 -6 -22 -3 -11 4
-14 2 -9 -5 4 -6 2 -21 -4 -32 -16 -30 8 -26 43 8 17 15 27 22 23 15 -4 -7 2
-17 13 -23 16 -8 22 -6 31 10 13 24 30 26 30 5 0 -8 -4 -15 -10 -15 -5 0 -10
-8 -10 -17 1 -15 4 -14 20 6 17 19 21 21 26 7 3 -9 16 -16 28 -15 11 0 15 3 8
6 -10 4 -9 10 4 25 15 15 16 21 5 27 -11 7 -11 10 0 14 9 4 10 6 2 6 -7 1 -10
7 -7 15 3 7 -2 21 -11 30 -18 18 -35 21 -35 6 0 -5 -1 -13 -1 -17 -2 -12 -37
-34 -60 -38 -17 -3 -20 0 -16 15 3 10 0 21 -7 23 -7 3 -6 9 4 22 14 17 14 18
-8 6 -18 -10 -21 -15 -12 -26 8 -10 8 -15 -1 -21 -8 -5 -9 -3 -4 6 5 8 3 11
-6 8 -8 -3 -13 -12 -11 -19 3 -11 1 -12 -9 -1 -7 6 -20 12 -29 11 -10 0 -9 -3
5 -9 16 -7 17 -9 3 -9 -9 -1 -23 -4 -32 -7 -12 -5 -16 0 -16 17 0 17 3 20 9
11 7 -11 9 -11 14 2 8 21 -13 21 -39 0 -10 -8 -13 -13 -6 -9 6 3 12 1 12 -4 0
-6 -7 -11 -16 -11 -8 0 -12 -4 -9 -10 3 -5 -1 -10 -10 -10 -8 0 -18 -7 -21
-15 -7 -18 -25 -20 -22 -2 2 7 -9 13 -27 14 -62 4 -75 8 -75 21 0 7 5 10 12 6
6 -4 8 -3 5 4 -4 5 -17 8 -29 4 -14 -3 -19 -1 -14 6 3 6 1 14 -5 18 -8 4 -9 3
-5 -4 4 -7 3 -12 -2 -12 -5 0 -12 9 -15 19 -3 15 -1 18 12 14 12 -4 13 -3 2 5
-11 8 -11 10 0 15 8 3 9 6 4 6 -6 1 -16 -4 -23 -11z m233 -109 c11 -16 1 -19
-13 -3 -7 8 -8 14 -3 14 5 0 13 -5 16 -11z"/>
<path d="M398 1957 c11 -13 11 -21 -2 -45 -16 -30 -48 -40 -44 -13 2 10 -4 15
-14 15 -10 -1 -16 2 -13 6 3 4 -3 14 -12 21 -14 12 -16 12 -8 -1 7 -13 6 -13
-7 -2 -14 11 -17 8 -27 -19 -14 -41 -15 -81 -1 -59 5 8 10 10 10 3 0 -6 9 -9
23 -6 22 5 22 5 2 -10 -11 -9 -16 -19 -11 -24 5 -4 11 -2 13 5 6 16 23 15 37
-3 9 -13 13 -11 24 12 9 20 9 24 0 15 -15 -15 -25 -15 -31 1 -4 10 8 13 44 13
27 0 49 -3 49 -7 0 -3 12 -4 26 -1 17 3 23 9 19 20 -6 16 13 45 24 37 4 -2 8
2 8 10 0 8 -4 15 -9 15 -4 0 -8 -4 -8 -9 0 -5 -13 -11 -29 -13 -17 -2 -28 -1
-25 4 3 4 0 8 -6 8 -6 0 -9 4 -5 9 3 6 -5 15 -17 22 -21 11 -22 11 -10 -4z"/>
<path d="M951 1924 c0 -11 3 -14 6 -6 3 7 2 16 -1 19 -3 4 -6 -2 -5 -13z"/>
<path d="M515 1910 c-3 -11 -12 -19 -18 -17 -15 3 -9 -35 6 -45 7 -4 18 -6 25
-3 7 3 11 1 9 -3 -3 -4 6 -15 20 -26 25 -18 25 -18 14 1 -19 37 7 44 42 12 18
-17 34 -24 36 -18 2 6 -2 16 -8 22 -17 17 -14 50 4 44 19 -8 28 8 12 21 -10 8
-18 5 -31 -13 -11 -14 -22 -25 -25 -25 -12 0 -66 52 -63 61 5 19 -17 8 -23
-11z m0 -40 c3 -5 1 -10 -4 -10 -6 0 -11 5 -11 10 0 6 2 10 4 10 3 0 8 -4 11
-10z m55 -6 c0 -8 -19 -13 -24 -6 -3 5 1 9 9 9 8 0 15 -2 15 -3z"/>
<path d="M638 1923 c7 -3 16 -2 19 1 4 3 -2 6 -13 5 -11 0 -14 -3 -6 -6z"/>
<path d="M1118 1923 c7 -3 16 -2 19 1 4 3 -2 6 -13 5 -11 0 -14 -3 -6 -6z"/>
<path d="M1275 1860 c-3 -5 -1 -10 4 -10 6 0 11 5 11 10 0 6 -2 10 -4 10 -3 0
-8 -4 -11 -10z"/>
<path d="M386 1845 c-3 -9 0 -15 9 -15 16 0 20 16 6 24 -5 3 -11 -1 -15 -9z"/>
<path d="M470 1835 c0 -8 4 -15 10 -15 5 0 7 7 4 15 -4 8 -8 15 -10 15 -2 0
-4 -7 -4 -15z"/>
<path d="M783 1823 c-7 -2 -13 -18 -13 -34 l0 -29 115 0 115 0 0 29 c0 32 -12
40 -47 33 -18 -3 -22 -9 -18 -23 6 -17 1 -19 -50 -19 -52 0 -56 2 -50 20 3 11
2 20 -4 20 -5 0 -15 2 -23 4 -7 3 -19 2 -25 -1z"/>
<path d="M140 1760 c0 -12 8 -35 17 -53 14 -26 18 -29 21 -14 7 33 -8 87 -23
87 -8 0 -15 -9 -15 -20z"/>
<path d="M1596 1758 c-3 -13 -6 -36 -6 -53 l0 -30 20 25 c23 29 27 80 6 80 -7
0 -16 -10 -20 -22z"/>
<path d="M250 1750 c-9 -6 -10 -10 -3 -10 6 0 15 5 18 10 8 12 4 12 -15 0z"/>
<path d="M1507 1749 c7 -7 15 -10 18 -7 3 3 -2 9 -12 12 -14 6 -15 5 -6 -5z"/>
<path d="M211 1724 c0 -11 3 -14 6 -6 3 7 2 16 -1 19 -3 4 -6 -2 -5 -13z"/>
<path d="M1550 1725 c0 -8 4 -15 10 -15 5 0 7 7 4 15 -4 8 -8 15 -10 15 -2 0
-4 -7 -4 -15z"/>
<path d="M237 1711 c-4 -17 -2 -18 14 -8 22 14 25 27 5 27 -7 0 -16 -9 -19
-19z"/>
<path d="M1500 1720 c0 -5 7 -10 15 -10 8 0 15 5 15 10 0 6 -7 10 -15 10 -8 0
-15 -4 -15 -10z"/>
<path d="M84 1712 c4 -7 2 -12 -3 -12 -6 0 -11 -4 -11 -8 0 -5 7 -9 15 -9 18
0 20 23 3 33 -7 4 -8 3 -4 -4z"/>
<path d="M1674 1709 c-8 -13 13 -36 23 -24 5 4 2 10 -5 12 -6 3 -10 9 -6 14 3
5 3 9 0 9 -3 0 -8 -5 -12 -11z"/>
<path d="M122 1621 c4 -13 18 -16 19 -4 0 4 -5 9 -11 12 -7 2 -11 -2 -8 -8z"/>
<path d="M1625 1621 c-6 -11 9 -23 19 -14 9 9 7 23 -3 23 -6 0 -12 -4 -16 -9z"/>
<path d="M161 1584 c0 -11 3 -14 6 -6 3 7 2 16 -1 19 -3 4 -6 -2 -5 -13z"/>
<path d="M1601 1584 c0 -11 3 -14 6 -6 3 7 2 16 -1 19 -3 4 -6 -2 -5 -13z"/>
<path d="M855 1570 c-3 -5 -3 -14 0 -20 3 -5 2 -10 -4 -10 -5 0 -11 8 -14 18
-3 13 -6 10 -11 -10 -5 -16 -12 -28 -18 -28 -5 0 -6 5 -3 10 3 6 1 10 -4 10
-17 0 -13 -18 7 -30 15 -10 15 -11 -4 -7 -12 3 -28 1 -35 -4 -11 -7 -10 -9 4
-10 33 -3 36 -4 50 -23 10 -13 16 -15 21 -8 4 7 3 12 -2 12 -5 0 -9 7 -9 15 0
8 5 15 10 15 5 0 7 7 3 15 -3 8 -3 15 0 15 3 0 12 -7 20 -15 9 -9 11 -15 4
-15 -6 0 -8 -4 -5 -10 9 -15 45 -12 51 5 4 8 10 12 15 9 5 -3 4 -14 -2 -25
-13 -24 -4 -38 13 -21 15 15 14 80 -1 95 -8 8 -11 4 -11 -13 0 -19 -3 -21 -9
-11 -5 8 -7 20 -4 27 6 16 -14 28 -23 13 -4 -8 -3 -9 4 -5 7 4 12 4 12 -1 0
-12 -16 -35 -25 -35 -9 0 -25 23 -25 35 0 5 5 5 12 1 7 -4 8 -3 4 4 -9 15 -13
15 -21 2z"/>
<path d="M190 1532 c0 -5 7 -9 15 -9 8 0 12 4 9 9 -3 4 -9 8 -15 8 -5 0 -9 -4
-9 -8z"/>
<path d="M963 1525 c0 -8 4 -12 9 -9 4 3 8 9 8 15 0 5 -4 9 -8 9 -5 0 -9 -7
-9 -15z"/>
<path d="M1555 1530 c-3 -5 1 -10 9 -10 9 0 16 5 16 10 0 6 -4 10 -9 10 -6 0
-13 -4 -16 -10z"/>
<path d="M975 1499 c-9 -14 -2 -20 14 -10 8 6 9 11 3 15 -6 3 -14 1 -17 -5z"/>
<path d="M736 1464 c-24 -24 -19 -33 13 -24 25 7 32 5 45 -16 19 -27 20 -34 6
-34 -5 0 -10 6 -10 14 0 15 -35 27 -56 19 -20 -7 -29 -50 -16 -78 8 -17 7 -27
-2 -40 -11 -15 -13 -14 -24 10 -8 16 -18 25 -26 22 -8 -3 -23 1 -34 9 -19 13
-21 12 -27 -16 -4 -16 -10 -30 -13 -30 -4 0 -13 -18 -20 -41 -10 -33 -10 -44
0 -57 10 -12 10 -14 1 -8 -7 4 -13 3 -13 -3 0 -5 5 -13 10 -16 6 -3 10 -12 10
-18 0 -7 -4 -6 -10 3 -8 13 -10 13 -10 -1 0 -9 10 -20 23 -24 19 -6 19 -8 5
-12 -10 -2 -18 -9 -18 -14 0 -6 4 -8 8 -5 4 2 14 -5 22 -17 12 -20 12 -21 -3
-8 -15 12 -16 10 -10 -19 5 -26 3 -31 -7 -25 -10 6 -12 0 -8 -23 4 -28 2 -30
-11 -19 -9 6 -19 17 -23 22 -5 6 -8 6 -8 -2 0 -6 7 -18 15 -27 8 -8 15 -25 15
-38 0 -29 14 -51 34 -54 12 -2 13 3 6 22 -10 26 -4 33 23 28 26 -4 30 17 14
64 -15 44 -13 54 9 45 7 -3 16 -26 20 -53 5 -36 10 -47 20 -43 8 3 12 15 10
29 -3 13 -1 26 3 29 9 5 5 59 -5 85 -5 12 -8 11 -14 -5 -6 -16 -10 -12 -19 25
-8 30 -24 56 -49 78 l-37 33 38 -18 c23 -10 44 -30 53 -48 9 -20 12 -22 8 -7
-12 46 -11 71 1 76 14 5 25 -2 25 -16 0 -5 -4 -7 -9 -4 -15 9 -19 -18 -5 -31
17 -18 27 -16 20 2 -3 8 -1 15 4 15 14 0 12 -47 -2 -56 -7 -4 -8 -3 -4 4 4 7
2 12 -4 12 -7 0 -9 -7 -6 -16 3 -9 6 -17 6 -19 0 -2 8 -1 19 2 12 3 20 -2 24
-16 3 -12 1 -23 -3 -26 -12 -7 0 -45 14 -42 6 1 10 -4 8 -10 -1 -7 3 -13 8
-13 15 0 9 61 -8 88 -8 12 -12 26 -8 29 4 4 9 -2 12 -14 7 -24 37 -36 52 -21
7 7 10 5 8 -5 -1 -9 -5 -20 -9 -23 -4 -4 -7 -21 -6 -38 1 -27 2 -28 7 -8 9 30
25 30 34 0 5 -21 6 -21 8 -3 1 11 2 23 2 26 -1 4 10 7 23 7 20 0 25 -6 26 -27
1 -25 1 -25 7 -3 4 13 12 23 17 23 6 0 13 -10 17 -23 5 -14 6 -6 3 20 -3 24
-1 41 4 40 5 -2 16 5 23 15 11 15 13 11 13 -34 0 -28 3 -56 7 -62 4 -7 8 0 8
16 0 16 4 26 9 23 10 -6 22 30 13 38 -3 3 -11 -2 -19 -12 -12 -16 -13 -15 -7
3 10 30 36 56 50 51 16 -6 24 16 17 43 -4 14 -1 21 9 21 10 0 14 -8 13 -25 -2
-14 1 -23 5 -20 5 3 7 11 4 18 -2 7 7 24 21 37 14 13 25 20 25 16 0 -4 10 -2
23 4 13 7 8 -1 -15 -22 -24 -21 -41 -48 -48 -76 -6 -23 -15 -40 -21 -37 -5 4
-6 12 -3 18 5 8 4 9 -4 2 -6 -5 -13 -26 -16 -46 -3 -20 -8 -43 -11 -51 -4 -9
-1 -19 6 -24 8 -5 10 -3 4 6 -5 8 -4 11 3 6 6 -4 9 -13 6 -20 -3 -7 1 -16 9
-19 11 -4 16 6 21 43 7 53 22 66 51 43 16 -12 16 -14 3 -10 -13 4 -20 -3 -28
-29 -15 -46 -8 -64 24 -58 23 4 24 2 16 -25 -6 -23 -5 -28 7 -27 19 3 33 25
33 54 0 13 7 30 15 38 8 9 15 20 15 27 0 6 -13 -3 -28 -21 -23 -25 -28 -27
-28 -12 0 10 4 16 8 14 4 -3 8 7 8 21 0 14 4 24 9 20 5 -3 12 -1 15 4 7 10
-13 9 -30 -2 -7 -4 -15 0 -18 9 -9 22 -7 36 3 30 4 -3 6 5 4 17 -3 14 2 29 11
36 21 17 20 28 -1 34 -16 4 -16 5 1 6 16 1 17 3 5 18 -10 11 -10 14 -1 9 8 -4
12 -1 12 10 0 26 -22 94 -31 94 -4 0 -10 14 -14 31 -5 23 -10 28 -18 20 -15
-15 -33 -14 -52 5 -15 15 -17 15 -22 -4 -3 -11 -11 -23 -19 -26 -11 -4 -12 -2
-4 14 25 47 -2 95 -47 84 -18 -5 -24 -4 -19 5 4 6 12 9 17 6 5 -4 9 -2 9 3 0
6 10 8 22 4 l21 -5 -22 22 c-20 20 -23 20 -51 6 -16 -8 -31 -19 -35 -24 -3 -6
-13 -7 -23 -4 -14 6 -15 4 -4 -9 10 -13 10 -18 1 -24 -8 -4 -9 -3 -5 4 4 7 2
12 -4 12 -6 0 -15 10 -20 23 l-9 22 0 -22 c-1 -14 -7 -23 -17 -23 -11 0 -14 5
-9 18 5 13 3 14 -5 5 -9 -8 -21 -5 -47 13 -42 28 -47 29 -67 8z m244 -64 c0
-5 -4 -10 -10 -10 -5 0 -10 5 -10 10 0 6 5 10 10 10 6 0 10 -4 10 -10z m-150
-80 c5 0 4 -15 -1 -32 -11 -41 -11 -41 4 -32 6 4 9 4 6 0 -3 -3 -1 -31 6 -61
7 -30 11 -55 8 -55 -22 0 -122 81 -123 100 0 3 9 6 20 7 14 1 20 -3 18 -15 -2
-11 3 -17 13 -16 10 1 23 -9 30 -22 7 -13 17 -24 23 -24 6 0 6 4 -1 11 -6 6
-9 17 -7 24 3 7 1 16 -5 20 -6 3 -10 34 -10 68 1 34 3 54 6 45 2 -10 8 -18 13
-18z m111 -104 c-25 -27 -28 -51 -5 -42 9 3 18 6 20 6 3 0 2 5 -1 10 -3 6 3
10 15 10 12 0 18 5 15 10 -4 6 -11 7 -17 4 -7 -4 -8 -2 -4 5 6 9 11 9 21 1 15
-12 30 3 20 20 -3 6 1 7 9 4 11 -4 16 0 16 11 0 10 -5 13 -12 9 -7 -4 -8 -3
-4 5 4 6 11 9 16 6 4 -3 11 1 14 7 3 7 2 0 -1 -17 -8 -39 -39 -77 -85 -103
-20 -12 -39 -22 -42 -22 -13 0 -4 52 14 85 11 20 17 34 12 31 -5 -3 -6 12 -2
34 4 22 5 40 3 40 -2 0 -1 6 4 13 5 7 9 -12 11 -47 3 -48 -1 -63 -17 -80z
m171 107 c-6 -3 -10 -9 -6 -14 3 -5 1 -9 -4 -9 -21 0 -19 26 2 27 11 0 15 -1
8 -4z m-376 -43 c0 -12 -4 -16 -9 -11 -5 5 -6 14 -3 20 10 15 12 14 12 -9z
m345 -23 c-10 -9 -11 -8 -5 6 3 10 9 15 12 12 3 -3 0 -11 -7 -18z m39 -31 c0
-2 -7 -9 -15 -16 -13 -11 -14 -10 -9 4 5 14 24 23 24 12z m-492 -260 c-9 -9
-15 -10 -24 -2 -9 8 -8 12 5 17 22 9 33 0 19 -15z m542 10 c0 -3 -4 -8 -10
-11 -5 -3 -10 -1 -10 4 0 6 5 11 10 11 6 0 10 -2 10 -4z"/>
<path d="M680 1355 c0 -9 7 -18 15 -21 8 -4 12 -11 8 -17 -3 -6 -1 -7 5 -3 9
5 7 14 -4 32 -19 28 -24 30 -24 9z"/>
<path d="M498 1353 c7 -3 16 -2 19 1 4 3 -2 6 -13 5 -11 0 -14 -3 -6 -6z"/>
<path d="M1268 1353 c7 -3 16 -2 19 1 4 3 -2 6 -13 5 -11 0 -14 -3 -6 -6z"/>
<path d="M343 1323 c9 -8 -44 -44 -55 -37 -4 3 -8 -3 -8 -13 0 -15 -2 -16 -10
-3 -9 13 -10 13 -10 0 0 -8 -3 -24 -6 -36 -4 -14 -1 -21 10 -21 12 0 13 4 5
14 -9 10 -6 15 12 21 32 12 74 9 72 -5 -2 -6 4 -24 13 -40 l16 -28 -5 28 c-3
18 0 26 7 24 6 -3 19 3 29 11 16 14 17 14 12 1 -8 -20 12 -72 24 -64 5 3 13 0
17 -6 4 -7 3 -9 -4 -5 -7 4 -10 -2 -9 -14 1 -12 7 -18 14 -16 7 3 17 -2 21
-11 7 -12 10 -7 14 22 3 25 -3 51 -17 80 -22 42 -22 42 -2 41 11 -1 22 4 24
11 3 7 -3 9 -17 6 -13 -4 -26 0 -31 8 -6 9 -12 10 -16 4 -8 -9 -15 -10 -70 -6
-39 2 -15 30 30 34 38 3 37 4 -12 5 -30 1 -51 -1 -48 -5z"/>
<path d="M1367 1323 c57 -6 64 -29 10 -36 -27 -4 -44 -1 -49 6 -6 9 -10 8 -17
-2 -5 -8 -18 -12 -31 -8 -14 3 -20 1 -17 -6 3 -7 10 -11 16 -9 6 1 11 -5 11
-14 0 -8 5 -12 10 -9 6 3 10 1 10 -5 0 -6 4 -9 9 -5 5 3 13 0 17 -6 4 -7 3 -9
-4 -5 -6 3 -13 2 -17 -4 -3 -5 -12 -10 -18 -10 -7 0 -6 4 3 10 8 5 11 10 5 10
-30 0 -39 -23 -35 -90 l2 -35 13 30 c9 19 14 24 15 13 0 -10 5 -18 11 -18 5 0
8 3 6 8 -3 4 2 23 12 42 17 36 61 53 61 23 0 -12 2 -12 13 -1 7 7 18 22 24 32
12 21 43 31 43 14 0 -6 6 -8 14 -5 9 4 12 0 9 -12 -3 -11 1 -18 11 -18 9 0 16
4 16 9 0 4 -4 8 -9 8 -5 0 -8 12 -5 26 3 16 1 23 -6 19 -5 -3 -10 -1 -10 6 0
8 -5 7 -17 -2 -9 -8 -14 -9 -10 -3 3 6 -5 17 -18 24 -13 7 -22 17 -19 22 3 4
-19 7 -48 6 -49 -1 -50 -2 -11 -5z m-7 -78 c7 -9 8 -15 2 -15 -5 0 -12 7 -16
15 -3 8 -4 15 -2 15 2 0 9 -7 16 -15z m-40 -55 c0 -5 -5 -10 -11 -10 -5 0 -7
5 -4 10 3 6 8 10 11 10 2 0 4 -4 4 -10z"/>
<path d="M1191 1104 c0 -11 3 -14 6 -6 3 7 2 16 -1 19 -3 4 -6 -2 -5 -13z"/>
<path d="M360 1066 c0 -19 27 -39 40 -31 8 5 6 13 -6 26 -20 22 -34 25 -34 5z"/>
<path d="M1377 1062 c-10 -10 -14 -21 -11 -25 10 -10 44 12 44 28 0 20 -13 19
-33 -3z"/>
<path d="M350 1020 c-1 -8 -2 -31 -2 -50 0 -41 -19 -72 -28 -46 -5 14 -8 14
-23 -4 -17 -20 -17 -21 0 -18 10 2 17 -2 16 -9 -1 -6 5 -14 13 -17 11 -4 14
-1 9 13 -4 13 0 20 15 24 11 3 20 9 19 14 -5 26 3 42 19 39 9 -1 28 8 42 21
l24 24 -47 -4 c-35 -2 -47 0 -50 12 -4 14 -5 14 -7 1z"/>
<path d="M1405 1001 c-4 -17 -12 -31 -18 -31 -6 0 -2 -6 8 -14 27 -19 34 -12
30 30 -5 47 -12 53 -20 15z"/>
<path d="M703 995 c0 -8 4 -12 9 -9 4 3 8 9 8 15 0 5 -4 9 -8 9 -5 0 -9 -7 -9
-15z"/>
<path d="M736 995 c-3 -9 0 -15 9 -15 9 0 12 6 9 15 -4 8 -7 15 -9 15 -2 0 -5
-7 -9 -15z"/>
<path d="M1016 995 c-3 -9 0 -15 9 -15 9 0 12 6 9 15 -4 8 -7 15 -9 15 -2 0
-5 -7 -9 -15z"/>
<path d="M1341 987 c26 -25 34 -25 48 1 8 15 3 17 -31 19 l-41 3 24 -23z"/>
<path d="M856 981 c-3 -5 1 -11 9 -15 9 -3 15 0 15 9 0 16 -16 20 -24 6z"/>
<path d="M890 974 c0 -8 5 -12 10 -9 6 3 10 10 10 16 0 5 -4 9 -10 9 -5 0 -10
-7 -10 -16z"/>
<path d="M440 971 c0 -5 11 -16 25 -25 25 -17 25 -16 13 3 -13 22 -38 36 -38
22z"/>
<path d="M1299 954 l-24 -27 28 18 c15 9 27 21 27 26 0 14 -5 11 -31 -17z"/>
<path d="M390 949 c0 -6 9 -20 21 -32 15 -17 19 -18 14 -4 -5 11 -2 17 6 17
10 0 10 3 1 12 -15 15 -42 19 -42 7z"/>
<path d="M840 938 c0 -13 5 -30 10 -38 7 -11 10 -7 10 17 0 17 -4 35 -10 38
-6 3 -10 -4 -10 -17z"/>
<path d="M1223 934 c-6 -16 -14 -42 -18 -58 -5 -26 -4 -27 10 -13 8 9 15 20
15 26 0 6 5 11 11 11 6 0 9 -9 6 -20 -3 -11 -1 -18 4 -14 12 7 11 33 -4 68
l-13 30 -11 -30z"/>
<path d="M1341 947 c-7 -9 -1 -12 20 -12 16 -1 28 3 26 9 -5 14 -35 16 -46 3z"/>
<path d="M521 927 c-15 -38 -14 -52 3 -66 12 -10 13 -8 9 11 l-6 23 23 -25
c17 -18 21 -20 17 -7 -4 10 -7 26 -7 36 0 9 -6 26 -14 37 -14 18 -15 18 -25
-9z"/>
<path d="M1400 923 c0 -7 7 -13 15 -13 8 0 15 6 15 13 0 8 -7 14 -15 14 -8 0
-15 -6 -15 -14z"/>
<path d="M1446 924 c-4 -9 -4 -19 -1 -22 3 -3 5 1 5 8 0 9 5 8 13 -5 11 -14
16 -15 22 -5 5 9 4 11 -3 6 -7 -4 -12 -1 -12 8 0 22 -17 29 -24 10z"/>
<path d="M1430 880 c0 -5 7 -7 15 -4 8 4 15 8 15 10 0 2 -7 4 -15 4 -8 0 -15
-4 -15 -10z"/>
<path d="M365 820 c-3 -5 -1 -10 4 -10 6 0 11 5 11 10 0 6 -2 10 -4 10 -3 0
-8 -4 -11 -10z"/>
<path d="M1341 801 c-1 -33 -2 -34 -16 -15 -9 12 -14 14 -15 6 0 -7 -4 -10
-10 -7 -10 6 -11 2 -14 -47 -1 -19 1 -25 8 -18 6 6 21 10 35 10 13 0 22 3 18
6 -3 3 -2 16 2 28 4 11 4 32 0 46 -6 23 -7 22 -8 -9z"/>
<path d="M1390 820 c0 -5 5 -10 11 -10 5 0 7 5 4 10 -3 6 -8 10 -11 10 -2 0
-4 -4 -4 -10z"/>
<path d="M439 782 c-9 -10 -16 -26 -16 -35 0 -14 3 -14 16 -4 8 6 12 7 9 2 -4
-6 4 -15 16 -21 20 -9 22 -8 20 15 -3 48 -4 52 -13 47 -5 -4 -11 -1 -13 4 -2
6 -10 2 -19 -8z"/>
<path d="M528 773 c7 -2 12 -22 12 -44 0 -48 16 -52 22 -4 4 37 -6 55 -31 54
-11 0 -12 -2 -3 -6z"/>
<path d="M1214 770 c-12 -12 -6 -80 7 -80 5 0 9 18 9 39 0 22 5 42 13 44 8 4
7 6 -3 6 -9 1 -20 -3 -26 -9z"/>
<path d="M761 701 c-1 -20 -3 -21 -16 -11 -13 10 -15 9 -15 -8 0 -12 -8 -26
-17 -31 -10 -6 -16 -11 -13 -11 33 -8 40 -5 55 24 10 18 15 39 12 47 -3 8 -6
4 -6 -10z"/>
<path d="M1001 707 c0 -10 6 -31 14 -47 13 -26 20 -28 55 -20 3 0 -3 5 -12 11
-10 5 -18 19 -18 31 0 17 -3 18 -14 9 -12 -10 -15 -8 -19 11 -3 16 -5 17 -6 5z"/>
<path d="M390 682 c0 -19 19 -52 30 -52 6 0 10 8 10 17 0 9 -3 13 -7 9 -4 -3
-13 4 -20 16 -7 13 -12 17 -13 10z"/>
<path d="M1090 675 c0 -8 0 -18 -1 -22 0 -4 3 -9 8 -10 5 -2 10 8 11 22 1 14
-3 25 -8 25 -6 0 -10 -7 -10 -15z"/>
<path d="M1365 671 c-5 -18 -9 -21 -16 -10 -6 10 -9 8 -9 -8 0 -13 4 -23 10
-23 13 0 32 38 27 53 -2 7 -7 1 -12 -12z"/>
<path d="M560 667 c0 -8 7 -20 15 -27 10 -9 15 -9 15 -1 0 6 -5 11 -11 11 -5
0 -8 4 -4 9 3 5 1 12 -5 16 -5 3 -10 0 -10 -8z"/>
<path d="M666 671 c-4 -6 -1 -11 6 -11 9 0 9 -3 -2 -10 -9 -6 -10 -10 -3 -10
17 0 23 14 14 29 -6 9 -11 10 -15 2z"/>
<path d="M863 635 c0 -22 2 -30 4 -17 2 12 2 30 0 40 -3 9 -5 -1 -4 -23z"/>
<path d="M903 635 c0 -22 2 -30 4 -17 2 12 2 30 0 40 -3 9 -5 -1 -4 -23z"/>
<path d="M818 608 c0 -18 -1 -39 -1 -45 1 -7 -5 -13 -13 -13 -18 0 -17 -10 2
-35 11 -15 17 -17 23 -7 5 8 11 0 19 -25 9 -28 9 -39 -1 -45 -8 -5 -7 -9 5
-13 10 -4 15 -15 13 -26 -2 -11 0 -17 6 -14 5 4 7 11 4 16 -4 5 8 12 24 15 23
5 29 10 22 18 -7 8 -6 25 1 49 8 25 14 33 19 25 6 -10 12 -8 23 7 20 26 20 39
1 31 -10 -3 -14 1 -13 12 3 43 -3 83 -12 77 -5 -3 -10 -15 -10 -26 0 -17 -10
-23 -32 -20 -3 0 -4 -12 -2 -28 3 -20 0 -30 -11 -35 -9 -3 -15 -1 -14 7 4 33
-2 57 -16 57 -8 0 -15 9 -15 19 0 35 -20 34 -22 -1z"/>
<path d="M610 620 c0 -5 7 -10 16 -10 8 0 12 5 9 10 -3 6 -10 10 -16 10 -5 0
-9 -4 -9 -10z"/>
<path d="M1130 613 c-13 -15 -12 -16 4 -10 10 4 20 7 22 7 2 0 4 5 4 10 0 15
-13 12 -30 -7z"/>
<path d="M431 611 c-20 -13 -3 -33 22 -26 21 5 21 5 0 -6 -13 -7 -23 -16 -23
-21 0 -4 -7 -8 -15 -8 -8 0 -15 -6 -15 -12 -1 -7 -7 -2 -14 11 -9 16 -16 20
-20 12 -4 -6 -11 -9 -16 -6 -4 3 -6 -4 -3 -15 3 -11 10 -17 15 -14 5 3 21 -4
34 -17 19 -18 23 -19 18 -6 -9 24 4 21 27 -5 15 -19 20 -21 28 -9 7 12 14 12
33 4 13 -7 17 -12 10 -12 -7 -1 -10 -5 -7 -11 4 -6 -1 -7 -12 -3 -15 6 -16 4
-6 -9 7 -8 10 -17 8 -20 -3 -3 3 -8 15 -11 11 -3 20 -1 20 5 0 6 8 7 18 4 16
-7 16 -6 0 10 -16 16 -15 19 12 46 18 18 27 35 23 44 -5 15 -7 15 -15 1 -5
-10 -15 -14 -24 -10 -12 4 -15 15 -11 39 3 19 1 37 -5 40 -6 4 -8 2 -5 -3 4
-6 0 -14 -9 -17 -8 -3 -12 -2 -9 4 3 6 -1 10 -9 10 -9 0 -16 6 -16 13 0 8 -4
7 -10 -3 -6 -10 -10 -11 -10 -2 0 14 -9 15 -29 3z m139 -96 c-14 -17 -30 -20
-30 -4 0 5 4 8 9 4 5 -3 12 -1 16 5 3 5 9 10 12 10 3 0 0 -7 -7 -15z"/>
<path d="M1290 609 c0 -5 -6 -9 -14 -9 -8 0 -18 -5 -22 -12 -5 -8 0 -9 16 -5
16 4 20 3 12 -5 -16 -16 -45 -1 -37 20 4 12 3 14 -5 6 -7 -7 -7 -19 -2 -35 9
-23 -1 -55 -21 -70 -5 -4 -2 -13 6 -20 13 -12 13 -16 -1 -32 -15 -16 -15 -17
1 -11 9 3 17 2 17 -4 0 -6 8 -8 19 -5 13 3 17 11 13 25 -3 14 -1 19 6 14 7 -4
12 -2 12 4 0 6 5 8 10 5 6 -3 10 1 10 9 0 9 6 15 13 14 6 -2 11 3 9 10 -1 8 2
11 9 6 9 -5 10 -2 6 10 -4 11 -3 15 4 10 6 -3 9 -15 6 -25 -3 -11 -1 -19 4
-19 5 0 9 -8 9 -17 1 -15 4 -14 20 5 10 13 16 30 13 38 -3 8 3 21 13 29 12 9
14 14 6 15 -8 0 -10 5 -6 13 5 8 2 8 -9 -2 -9 -7 -17 -22 -17 -32 0 -10 -5
-21 -12 -25 -8 -5 -9 0 -6 14 4 15 2 22 -8 22 -8 0 -14 8 -14 18 0 14 -2 15
-10 2 -7 -11 -10 -11 -10 -2 0 7 -4 11 -8 8 -5 -3 -9 1 -9 9 0 7 8 12 19 10
10 -2 18 0 18 6 0 5 -6 9 -12 10 -7 0 -21 2 -30 4 -10 2 -18 -1 -18 -6z m-10
-82 c0 -8 -7 -14 -15 -14 -11 0 -12 4 -4 14 6 7 13 13 15 13 2 0 4 -6 4 -13z"/>
<path d="M562 580 c0 -14 2 -19 5 -12 2 6 2 18 0 25 -3 6 -5 1 -5 -13z"/>
<path d="M1202 580 c0 -14 2 -19 5 -12 2 6 2 18 0 25 -3 6 -5 1 -5 -13z"/>
<path d="M781 574 c0 -11 3 -14 6 -6 3 7 2 16 -1 19 -3 4 -6 -2 -5 -13z"/>
<path d="M981 574 c0 -11 3 -14 6 -6 3 7 2 16 -1 19 -3 4 -6 -2 -5 -13z"/>
<path d="M613 527 c3 -15 2 -25 -1 -22 -8 8 -32 -16 -26 -26 9 -16 32 -10 39
10 3 10 1 29 -5 42 -10 24 -10 23 -7 -4z"/>
<path d="M1148 532 c-12 -44 18 -76 40 -42 8 14 8 17 -5 16 -10 0 -19 9 -23
24 l-6 25 -6 -23z"/>
<path d="M1187 543 c-12 -11 -8 -21 13 -26 11 -3 20 -1 20 4 0 5 -7 9 -16 9
-8 0 -12 5 -9 10 7 11 2 13 -8 3z"/>
<path d="M350 510 c-12 -8 -11 -10 6 -10 14 0 24 -9 29 -22 6 -20 8 -21 12 -5
4 17 -12 47 -26 47 -3 0 -13 -5 -21 -10z"/>
<path d="M1154 462 c12 -19 -3 -35 -20 -21 -11 9 -14 8 -14 -2 -1 -9 -5 -8
-15 5 -12 15 -15 16 -15 5 0 -9 3 -19 7 -23 4 -4 6 -23 4 -42 -2 -32 11 -46
24 -24 3 6 1 10 -6 10 -8 0 -9 3 0 13 6 8 10 16 8 18 -1 2 4 -3 12 -11 12 -13
13 -13 8 3 -4 11 -1 20 8 23 18 7 20 40 3 50 -7 4 -8 3 -4 -4z"/>
<path d="M600 441 c0 -12 6 -21 15 -21 8 0 19 -8 24 -17 10 -21 11 -22 12 -65
l1 -33 9 30 c5 19 5 31 -1 33 -6 2 -3 13 5 25 17 25 20 47 5 47 -5 0 -10 -10
-10 -22 0 -18 -2 -20 -9 -9 -5 8 -7 20 -4 28 3 7 1 13 -5 13 -6 0 -17 3 -26 6
-12 4 -16 0 -16 -15z"/>
<path d="M896 401 c-4 -7 -5 -15 -2 -18 9 -9 19 4 14 18 -4 11 -6 11 -12 0z"/>
<path d="M685 350 c-3 -5 -1 -10 4 -10 6 0 11 5 11 10 0 6 -2 10 -4 10 -3 0
-8 -4 -11 -10z"/>
<path d="M1070 350 c0 -5 5 -10 11 -10 5 0 7 5 4 10 -3 6 -8 10 -11 10 -2 0
-4 -4 -4 -10z"/>
<path d="M1111 324 c0 -11 3 -14 6 -6 3 7 2 16 -1 19 -3 4 -6 -2 -5 -13z"/>
<path d="M795 300 c-3 -5 -1 -10 4 -10 6 0 11 5 11 10 0 6 -2 10 -4 10 -3 0
-8 -4 -11 -10z"/>
<path d="M960 294 c0 -8 5 -12 10 -9 6 4 8 11 5 16 -9 14 -15 11 -15 -7z"/>
<path d="M707 263 c-2 -5 -2 -14 -1 -20 1 -7 2 -21 4 -30 1 -12 3 -13 7 -5 2
6 8 10 13 7 4 -3 10 4 13 15 4 16 2 18 -13 10 -15 -8 -17 -6 -13 10 5 19 -2
28 -10 13z"/>
<path d="M1050 255 c0 -26 -33 -60 -57 -59 -16 1 -22 -6 -25 -28 -6 -35 8 -46
30 -24 16 16 16 17 -3 10 -17 -7 -18 -6 -5 8 8 9 19 14 23 11 5 -3 11 5 14 17
4 13 11 19 20 15 11 -3 13 -1 9 10 -3 8 -1 15 4 15 13 0 13 27 0 35 -5 3 -10
-1 -10 -10z"/>
<path d="M840 230 c0 -5 5 -10 11 -10 5 0 7 5 4 10 -3 6 -8 10 -11 10 -2 0 -4
-4 -4 -10z"/>
<path d="M915 230 c-3 -5 -1 -10 4 -10 6 0 11 5 11 10 0 6 -2 10 -4 10 -3 0
-8 -4 -11 -10z"/>
<path d="M878 223 c7 -3 16 -2 19 1 4 3 -2 6 -13 5 -11 0 -14 -3 -6 -6z"/>
<path d="M750 190 c-10 -7 -11 -10 -2 -10 6 0 11 -5 10 -11 -2 -6 7 -18 20
-26 20 -14 22 -14 22 1 0 19 16 21 23 4 4 -10 6 -10 6 0 1 6 8 12 17 12 9 0
14 -6 11 -13 -3 -8 4 -14 16 -15 17 -1 19 1 7 8 -12 8 -11 10 5 10 11 0 31 3
45 6 l25 5 -23 -13 c-12 -8 -19 -17 -16 -21 4 -4 16 0 26 10 20 18 25 49 6 36
-21 -13 -186 -10 -181 3 2 7 14 9 26 6 12 -3 19 -1 14 3 -11 13 -40 15 -57 5z"/>
</g>
</svg>
